# Blender v2.77 (sub 0) OBJ File: 'box2.blend'
# www.blender.org
mtllib box.mtl
o Cube
v 2.153167 -0.584124 -2.153167
v 2.153167 -0.584124 2.153167
v -2.153167 -0.584124 2.153167
v -2.153166 -0.584124 -2.153168
v 2.153168 0.584124 -2.153166
v 2.153166 0.584124 2.153168
v -2.153168 0.584124 2.153166
v -2.153167 0.584124 -2.153167
v 1.817167 -0.248124 -1.817167
v -1.817166 -0.248124 -1.817168
v -1.817167 -0.248124 1.817167
v 1.817167 -0.248124 1.817167
v 1.817166 0.584124 1.817168
v 1.817168 0.584124 -1.817166
v -1.817168 0.584125 1.817166
v -1.817167 0.584124 -1.817167
vn 0.0000 -1.0000 0.0000
vn 1.0000 -0.0000 0.0000
vn -0.0000 -0.0000 1.0000
vn -1.0000 -0.0000 -0.0000
vn 0.0000 0.0000 -1.0000
vn 0.0000 1.0000 -0.0000
usemtl Material
s off
f 2//1 4//1 1//1
f 5//2 2//2 1//2
f 6//3 3//3 2//3
f 3//4 8//4 4//4
f 1//5 8//5 5//5
f 12//4 14//4 9//4
f 11//5 13//5 12//5
f 10//2 15//2 11//2
f 14//3 10//3 9//3
f 8//6 15//6 16//6
f 8//6 14//6 5//6
f 7//6 13//6 15//6
f 6//6 14//6 13//6
f 2//1 3//1 4//1
f 5//2 6//2 2//2
f 6//3 7//3 3//3
f 3//4 7//4 8//4
f 1//5 4//5 8//5
f 12//4 13//4 14//4
f 11//5 15//5 13//5
f 10//2 16//2 15//2
f 14//3 16//3 10//3
f 8//6 7//6 15//6
f 8//6 16//6 14//6
f 7//6 6//6 13//6
f 6//6 5//6 14//6
usemtl Material.001
f 10//6 12//6 9//6
f 10//6 11//6 12//6
