# Blender v2.77 (sub 0) OBJ File: 'pb2_copy.blend'
# www.blender.org
mtllib boardC.mtl
o Circle
v 3.264000 0.000000 9.792002
v 3.264000 0.000000 0.000002
v 3.248283 0.000000 -0.319926
v 3.201284 0.000000 -0.636772
v 3.123454 0.000000 -0.947486
v 3.015544 0.000000 -1.249075
v 2.878593 0.000000 -1.538635
v 2.713920 0.000000 -1.813377
v 2.523110 0.000000 -2.070655
v 2.308001 0.000000 -2.307992
v 2.070665 0.000000 -2.523101
v 1.813388 0.000000 -2.713912
v 1.538647 0.000000 -2.878587
v 1.249087 0.000000 -3.015539
v 0.947499 0.000000 -3.123450
v 0.636785 0.000000 -3.201281
v 0.319939 0.000000 -3.248282
v 3.264000 0.876176 9.792002
v 3.264000 0.876176 0.000002
v 3.248283 0.876176 -0.319926
v 3.201284 0.876176 -0.636772
v 3.123454 0.876176 -0.947486
v 3.015544 0.876176 -1.249075
v 2.878593 0.876176 -1.538635
v 2.713920 0.876176 -1.813377
v 2.523110 0.876176 -2.070655
v 2.308001 0.876176 -2.307992
v 2.070665 0.876176 -2.523101
v 1.813388 0.876176 -2.713912
v 1.538647 0.876176 -2.878587
v 1.249087 0.876176 -3.015539
v 0.947499 0.876176 -3.123450
v 0.636785 0.876176 -3.201281
v 0.319939 0.876176 -3.248282
v 0.000000 0.000000 -3.264000
v 0.000000 0.000000 9.792002
v 0.000000 0.000000 0.000001
v -3.264000 0.000000 9.792002
v -3.264000 0.000000 0.000002
v -3.248283 0.000000 -0.319926
v -3.201284 0.000000 -0.636772
v -3.123454 0.000000 -0.947486
v -3.015544 0.000000 -1.249075
v -2.878593 0.000000 -1.538635
v -2.713920 0.000000 -1.813377
v -2.523110 0.000000 -2.070655
v -2.308001 0.000000 -2.307992
v -2.070665 0.000000 -2.523101
v -1.813388 0.000000 -2.713912
v -1.538647 0.000000 -2.878587
v -1.249087 0.000000 -3.015539
v -0.947499 0.000000 -3.123450
v -0.636785 0.000000 -3.201281
v -0.319939 0.000000 -3.248282
v 0.000000 0.876176 -3.264000
v 0.000000 0.876176 9.792002
v -3.264000 0.876176 9.792002
v -3.264000 0.876176 0.000002
v -3.248283 0.876176 -0.319926
v -3.201284 0.876176 -0.636772
v -3.123454 0.876176 -0.947486
v -3.015544 0.876176 -1.249075
v -2.878593 0.876176 -1.538635
v -2.713920 0.876176 -1.813377
v -2.523110 0.876176 -2.070655
v -2.308001 0.876176 -2.307992
v -2.070665 0.876176 -2.523101
v -1.813388 0.876176 -2.713912
v -1.538647 0.876176 -2.878587
v -1.249087 0.876176 -3.015539
v -0.947499 0.876176 -3.123450
v -0.636785 0.876176 -3.201281
v -0.319939 0.876176 -3.248282
v 3.375183 -0.111184 9.903185
v 3.401172 -0.135115 -0.003360
v 3.385849 -0.134075 -0.333473
v 3.336857 -0.134075 -0.663736
v 3.255737 -0.134075 -0.987609
v 3.143255 -0.134075 -1.301975
v 3.000503 -0.134075 -1.603795
v 2.828853 -0.134075 -1.890173
v 2.629962 -0.134075 -2.158348
v 2.405744 -0.134075 -2.405735
v 2.158358 -0.134075 -2.629953
v 1.890184 -0.134075 -2.828846
v 1.603806 -0.134075 -3.000496
v 1.301987 -0.134075 -3.143249
v 0.987622 -0.134075 -3.255733
v 0.663749 -0.134075 -3.336855
v 0.333486 -0.134075 -3.385848
v 3.400167 0.876176 9.928169
v 3.456517 0.876176 -0.004724
v 3.439930 0.876176 -0.338797
v 3.390157 0.876176 -0.674339
v 3.307737 0.876176 -1.003383
v 3.193457 0.876176 -1.322768
v 3.048425 0.876176 -1.629413
v 2.874037 0.876176 -1.920364
v 2.671972 0.876176 -2.192823
v 2.444169 0.876176 -2.444159
v 2.192833 0.876176 -2.671963
v 1.920375 0.876176 -2.874029
v 1.629425 0.876176 -3.048419
v 1.322781 0.876176 -3.193452
v 1.003396 0.876176 -3.307734
v 0.674352 0.876176 -3.390154
v 0.338811 0.876176 -3.439929
v 0.000000 -0.134075 -3.402230
v 0.000000 -0.136167 9.928169
v 0.000000 -0.192576 0.000001
v -3.375183 -0.111184 9.903185
v -3.401172 -0.135115 -0.003360
v -3.385849 -0.134075 -0.333473
v -3.336857 -0.134075 -0.663736
v -3.255737 -0.134075 -0.987609
v -3.143255 -0.134075 -1.301975
v -3.000503 -0.134075 -1.603795
v -2.828853 -0.134075 -1.890173
v -2.629962 -0.134075 -2.158348
v -2.405744 -0.134075 -2.405735
v -2.158358 -0.134075 -2.629953
v -1.890184 -0.134075 -2.828846
v -1.603806 -0.134075 -3.000496
v -1.301987 -0.134075 -3.143249
v -0.987622 -0.134075 -3.255733
v -0.663749 -0.134075 -3.336855
v -0.333486 -0.134075 -3.385848
v 0.000000 0.876176 -3.456576
v 0.000000 0.876176 9.984577
v -3.400167 0.876176 9.928169
v -3.456517 0.876176 -0.004724
v -3.439930 0.876176 -0.338797
v -3.390157 0.876176 -0.674339
v -3.307737 0.876176 -1.003383
v -3.193457 0.876176 -1.322768
v -3.048425 0.876176 -1.629413
v -2.874037 0.876176 -1.920364
v -2.671972 0.876176 -2.192823
v -2.444169 0.876176 -2.444159
v -2.192833 0.876176 -2.671963
v -1.920375 0.876176 -2.874029
v -1.629425 0.876176 -3.048419
v -1.322781 0.876176 -3.193452
v -1.003396 0.876176 -3.307734
v -0.674352 0.876176 -3.390154
v -0.338811 0.876176 -3.439929
vt 0.6686 0.0676
vt 0.0494 0.2836
vt 0.1363 0.1172
vt 0.8360 0.1097
vt 0.8527 0.1234
vt 0.6883 0.3112
vt 0.6950 0.0001
vt 0.6923 0.0662
vt 0.9231 0.2389
vt 0.9999 0.2347
vt 0.9314 0.2627
vt 0.8972 0.0726
vt 0.7214 0.0012
vt 0.7150 0.0666
vt 0.9173 0.0922
vt 0.8680 0.1388
vt 0.7480 0.0041
vt 0.7370 0.0689
vt 0.9354 0.1135
vt 0.8819 0.1558
vt 0.7747 0.0092
vt 0.7584 0.0732
vt 0.9515 0.1363
vt 0.8943 0.1744
vt 0.8011 0.0168
vt 0.7791 0.0794
vt 0.6692 0.0001
vt 0.9657 0.1601
vt 0.9052 0.1944
vt 0.8270 0.0270
vt 0.7990 0.0876
vt 0.1017 0.0724
vt 0.9782 0.1846
vt 0.9149 0.2159
vt 0.8518 0.0398
vt 0.8180 0.0977
vt 0.9895 0.2096
vt 0.8753 0.0551
vt 0.6686 0.0676
vt 0.7990 0.0876
vt 0.7791 0.0794
vt 0.6950 0.0001
vt 0.6923 0.0662
vt 0.9231 0.2389
vt 0.8972 0.0726
vt 0.8360 0.1097
vt 0.8527 0.1234
vt 0.7214 0.0012
vt 0.7150 0.0666
vt 0.9173 0.0922
vt 0.8680 0.1388
vt 0.7480 0.0041
vt 0.7370 0.0689
vt 0.9354 0.1135
vt 0.8819 0.1558
vt 0.7747 0.0092
vt 0.7584 0.0732
vt 0.9515 0.1363
vt 0.8943 0.1744
vt 0.8011 0.0168
vt 0.6692 0.0001
vt 0.1363 0.1172
vt 0.9657 0.1601
vt 0.9052 0.1944
vt 0.8270 0.0270
vt 0.1017 0.0724
vt 0.9782 0.1846
vt 0.9149 0.2159
vt 0.8518 0.0398
vt 0.8180 0.0977
vt 0.9895 0.2096
vt 0.8753 0.0551
vt 0.1363 0.1172
vt 0.6883 0.3112
vt 0.6686 0.0676
vt 0.7791 0.0794
vt 0.7584 0.0732
vt 0.6692 0.0001
vt 0.6923 0.0662
vt 0.6950 0.0001
vt 0.9895 0.2096
vt 0.9314 0.2627
vt 0.9999 0.2347
vt 0.8753 0.0551
vt 0.8527 0.1234
vt 0.8972 0.0726
vt 0.7214 0.0012
vt 0.7150 0.0666
vt 0.8680 0.1388
vt 0.9173 0.0922
vt 0.7370 0.0689
vt 0.7480 0.0041
vt 0.9354 0.1135
vt 0.8819 0.1558
vt 0.7747 0.0092
vt 0.9515 0.1363
vt 0.8943 0.1744
vt 0.8011 0.0168
vt 0.9052 0.1944
vt 0.9657 0.1601
vt 0.7990 0.0876
vt 0.8270 0.0270
vt 0.0001 0.2563
vt 0.1017 0.0724
vt 0.9149 0.2159
vt 0.9782 0.1846
vt 0.8518 0.0398
vt 0.8180 0.0977
vt 0.9231 0.2389
vt 0.8360 0.1097
vt 0.1363 0.1172
vt 0.6686 0.0676
vt 0.8527 0.1234
vt 0.8680 0.1388
vt 0.6692 0.0001
vt 0.6923 0.0662
vt 0.9895 0.2096
vt 0.9231 0.2389
vt 0.8753 0.0551
vt 0.8360 0.1097
vt 0.7214 0.0012
vt 0.7150 0.0666
vt 0.8972 0.0726
vt 0.7370 0.0689
vt 0.9354 0.1135
vt 0.8819 0.1558
vt 0.7747 0.0092
vt 0.7584 0.0732
vt 0.9515 0.1363
vt 0.8943 0.1744
vt 0.7791 0.0794
vt 0.9052 0.1944
vt 0.8011 0.0168
vt 0.7990 0.0876
vt 0.0494 0.2836
vt 0.9782 0.1846
vt 0.9149 0.2159
vt 0.8518 0.0398
vt 0.8180 0.0977
vt 0.1017 0.0724
vt 0.0001 0.2563
vt 0.6950 0.0001
vt 0.7480 0.0041
vt 0.8270 0.0270
vt 0.9173 0.0922
vt 0.9657 0.1601
vn 0.0000 1.0000 0.0000
vn -0.9988 0.0000 0.0491
vn -0.0491 0.0000 0.9988
vn -0.6716 0.0000 0.7409
vn -0.9892 0.0000 0.1467
vn -0.5957 0.0000 0.8032
vn -0.9700 0.0000 0.2430
vn -0.5141 0.0000 0.8577
vn -0.9415 0.0000 0.3369
vn -0.4276 0.0000 0.9040
vn -0.9040 0.0000 0.4276
vn -1.0000 0.0000 0.0000
vn -0.3369 0.0000 0.9415
vn -0.8577 0.0000 0.5141
vn 0.0000 0.0000 -1.0000
vn -0.2430 0.0000 0.9700
vn -0.8032 0.0000 0.5957
vn -0.1467 0.0000 0.9892
vn -0.7410 0.0000 0.6716
vn 0.9988 0.0000 0.0491
vn 0.0491 0.0000 0.9988
vn 0.6716 0.0000 0.7409
vn 0.9892 0.0000 0.1467
vn 0.5957 0.0000 0.8032
vn 0.9700 0.0000 0.2430
vn 0.5141 0.0000 0.8577
vn 0.9415 0.0000 0.3369
vn 0.4276 0.0000 0.9040
vn 0.9040 0.0000 0.4276
vn 1.0000 0.0000 0.0000
vn 0.3369 0.0000 0.9415
vn 0.8577 0.0000 0.5141
vn 0.2430 0.0000 0.9700
vn 0.8032 0.0000 0.5957
vn 0.1467 0.0000 0.9892
vn 0.7410 0.0000 0.6716
vn 0.0169 -0.9999 0.0025
vn 0.0156 -0.9999 -0.0074
vn 0.9973 -0.0537 -0.0495
vn 0.0490 -0.0537 -0.9974
vn 0.6706 -0.0537 -0.7399
vn 0.9878 -0.0537 -0.1465
vn 0.5948 -0.0536 -0.8021
vn 0.9686 -0.0536 -0.2426
vn 0.5134 -0.0536 -0.8565
vn 0.9402 -0.0536 -0.3364
vn 0.4269 -0.0536 -0.9027
vn 0.9027 -0.0536 -0.4269
vn 0.9985 -0.0546 0.0028
vn 0.3364 -0.0536 -0.9402
vn 0.8565 -0.0536 -0.5134
vn 0.0166 -0.0257 0.9995
vn 0.2426 -0.0537 -0.9686
vn 0.8021 -0.0537 -0.5948
vn 0.1465 -0.0536 -0.9878
vn 0.7399 -0.0536 -0.6706
vn -0.0169 -0.9999 0.0025
vn -0.0103 -0.9999 -0.0138
vn -0.9974 -0.0546 -0.0465
vn -0.0490 -0.0536 -0.9974
vn -0.6706 -0.0536 -0.7399
vn -0.9878 -0.0537 -0.1465
vn -0.5948 -0.0537 -0.8020
vn -0.9686 -0.0537 -0.2426
vn -0.5134 -0.0536 -0.8565
vn -0.9402 -0.0536 -0.3364
vn -0.4269 -0.0536 -0.9027
vn -0.9027 -0.0536 -0.4269
vn -0.9985 -0.0546 0.0028
vn -0.3364 -0.0536 -0.9402
vn -0.8565 -0.0536 -0.5134
vn -0.0078 -0.0556 0.9984
vn -0.2426 -0.0537 -0.9686
vn -0.8021 -0.0537 -0.5948
vn -0.1465 -0.0537 -0.9878
vn -0.7399 -0.0536 -0.6706
vn -0.6716 0.0000 0.7410
vn 0.6716 0.0000 0.7410
vn 0.0074 -1.0000 0.0057
vn 0.0008 -0.9999 -0.0172
vn 0.0042 -0.9999 -0.0167
vn 0.0074 -0.9999 -0.0156
vn 0.0103 -0.9999 -0.0138
vn 0.0128 -0.9999 -0.0116
vn 0.0148 -0.9999 -0.0088
vn 0.0162 -0.9999 -0.0058
vn 0.0170 -0.9999 -0.0025
vn 0.0169 -0.9998 -0.0039
vn 0.0025 -0.9999 -0.0170
vn 0.0088 -0.9999 -0.0148
vn 0.0138 -0.9999 -0.0103
vn 0.0167 -0.9999 -0.0042
vn 0.0058 -0.9999 -0.0162
vn 0.0116 -0.9999 -0.0128
vn 0.9974 -0.0546 -0.0465
vn 0.0490 -0.0536 -0.9974
vn 0.6706 -0.0536 -0.7399
vn 0.9878 -0.0536 -0.1465
vn 0.5948 -0.0537 -0.8020
vn 0.9686 -0.0537 -0.2426
vn 0.9997 -0.0254 0.0057
vn 0.0078 -0.0556 0.9984
vn 0.2426 -0.0536 -0.9686
vn 0.8021 -0.0536 -0.5948
vn 0.1465 -0.0537 -0.9878
vn 0.7399 -0.0537 -0.6706
vn -0.0074 -1.0000 0.0057
vn -0.0008 -0.9999 -0.0172
vn -0.0169 -0.9998 -0.0039
vn -0.0167 -0.9999 -0.0042
vn -0.0156 -0.9999 -0.0074
vn -0.0138 -0.9999 -0.0103
vn -0.0116 -0.9999 -0.0128
vn -0.0088 -0.9999 -0.0148
vn -0.0058 -0.9999 -0.0162
vn -0.0025 -0.9999 -0.0170
vn -0.0170 -0.9999 -0.0025
vn -0.0162 -0.9999 -0.0058
vn -0.0128 -0.9999 -0.0116
vn -0.0074 -0.9999 -0.0156
vn -0.0042 -0.9999 -0.0167
vn -0.0148 -0.9999 -0.0088
vn -0.9973 -0.0537 -0.0495
vn -0.0490 -0.0537 -0.9974
vn -0.6706 -0.0537 -0.7399
vn -0.9878 -0.0536 -0.1465
vn -0.5948 -0.0536 -0.8021
vn -0.9686 -0.0536 -0.2426
vn -0.9997 -0.0254 0.0057
vn -0.0166 -0.0257 0.9995
vn -0.2426 -0.0536 -0.9686
vn -0.8021 -0.0536 -0.5948
vn -0.1465 -0.0536 -0.9878
vn -0.7399 -0.0537 -0.6706
usemtl None
s off
f 2/1/1 36/2/1 1/3/1
f 10/4/1 11/5/1 37/6/1
f 2/1/2 20/7/2 3/8/2
f 17/9/3 55/10/3 35/11/3
f 10/4/4 28/12/4 11/5/4
f 3/8/5 21/13/5 4/14/5
f 11/5/6 29/15/6 12/16/6
f 4/14/7 22/17/7 5/18/7
f 12/16/8 30/19/8 13/20/8
f 5/18/9 23/21/9 6/22/9
f 13/20/10 31/23/10 14/24/10
f 6/22/11 24/25/11 7/26/11
f 1/3/12 19/27/12 2/1/12
f 14/24/13 32/28/13 15/29/13
f 7/26/14 25/30/14 8/31/14
f 36/2/15 18/32/15 1/3/15
f 15/29/16 33/33/16 16/34/16
f 8/31/17 26/35/17 9/36/17
f 16/34/18 34/37/18 17/9/18
f 9/36/19 27/38/19 10/4/19
f 39/39/1 36/2/1 37/6/1
f 45/40/1 44/41/1 37/6/1
f 59/42/20 39/39/20 40/43/20
f 55/10/21 54/44/21 35/11/21
f 67/45/22 47/46/22 48/47/22
f 60/48/23 40/43/23 41/49/23
f 68/50/24 48/47/24 49/51/24
f 61/52/25 41/49/25 42/53/25
f 69/54/26 49/51/26 50/55/26
f 62/56/27 42/53/27 43/57/27
f 70/58/28 50/55/28 51/59/28
f 63/60/29 43/57/29 44/41/29
f 58/61/30 38/62/30 39/39/30
f 71/63/31 51/59/31 52/64/31
f 64/65/32 44/41/32 45/40/32
f 57/66/15 36/2/15 38/62/15
f 72/67/33 52/64/33 53/68/33
f 65/69/34 45/40/34 46/70/34
f 73/71/35 53/68/35 54/44/35
f 66/72/36 46/70/36 47/46/36
f 74/73/37 110/74/37 75/75/37
f 80/76/38 79/77/38 110/74/38
f 92/78/39 76/79/39 93/80/39
f 107/81/40 108/82/40 128/83/40
f 100/84/41 84/85/41 101/86/41
f 94/87/42 76/79/42 77/88/42
f 101/86/43 85/89/43 102/90/43
f 94/87/44 78/91/44 95/92/44
f 103/93/45 85/89/45 86/94/45
f 96/95/46 78/91/46 79/77/46
f 104/96/47 86/94/47 87/97/47
f 96/95/48 80/76/48 97/98/48
f 92/78/49 74/73/49 75/75/49
f 104/96/50 88/99/50 105/100/50
f 97/98/51 81/101/51 98/102/51
f 129/103/52 74/73/52 91/104/52
f 105/100/53 89/105/53 106/106/53
f 99/107/54 81/101/54 82/108/54
f 106/106/55 90/109/55 107/81/55
f 100/84/56 82/108/56 83/110/56
f 110/74/57 111/111/57 112/112/57
f 121/113/58 122/114/58 110/74/58
f 131/115/59 113/116/59 112/112/59
f 146/117/60 108/82/60 127/118/60
f 139/119/61 121/113/61 120/120/61
f 113/116/62 133/121/62 114/122/62
f 140/123/63 122/114/63 121/113/63
f 133/121/64 115/124/64 114/122/64
f 122/114/65 142/125/65 123/126/65
f 115/124/66 135/127/66 116/128/66
f 123/126/67 143/129/67 124/130/67
f 135/127/68 117/131/68 116/128/68
f 111/111/69 131/115/69 112/112/69
f 143/129/70 125/132/70 124/130/70
f 136/133/71 118/134/71 117/131/71
f 129/103/72 111/111/72 109/135/72
f 125/132/73 145/136/73 126/137/73
f 118/134/74 138/138/74 119/139/74
f 145/136/75 127/118/75 126/137/75
f 119/139/76 139/119/76 120/120/76
f 18/32/1 92/78/1 19/27/1
f 18/32/1 129/103/1 91/104/1
f 20/7/1 92/78/1 93/80/1
f 20/7/1 94/87/1 21/13/1
f 21/13/1 95/92/1 22/17/1
f 22/17/1 96/95/1 23/21/1
f 24/25/1 96/95/1 97/98/1
f 25/30/1 97/98/1 98/102/1
f 26/35/1 98/102/1 99/107/1
f 26/35/1 100/84/1 27/38/1
f 28/12/1 100/84/1 101/86/1
f 28/12/1 102/90/1 29/15/1
f 29/15/1 103/93/1 30/19/1
f 31/23/1 103/93/1 104/96/1
f 32/28/1 104/96/1 105/100/1
f 33/33/1 105/100/1 106/106/1
f 34/37/1 106/106/1 107/81/1
f 55/10/1 107/81/1 128/83/1
f 57/66/1 131/115/1 130/140/1
f 57/66/1 129/103/1 56/141/1
f 59/42/1 131/115/1 58/61/1
f 59/42/1 133/121/1 132/142/1
f 60/48/1 134/143/1 133/121/1
f 61/52/1 135/127/1 134/143/1
f 63/60/1 135/127/1 62/56/1
f 64/65/1 136/133/1 63/60/1
f 65/69/1 137/144/1 64/65/1
f 65/69/1 139/119/1 138/138/1
f 67/45/1 139/119/1 66/72/1
f 67/45/1 141/145/1 140/123/1
f 68/50/1 142/125/1 141/145/1
f 70/58/1 142/125/1 69/54/1
f 71/63/1 143/129/1 70/58/1
f 72/67/1 144/146/1 71/63/1
f 73/71/1 145/136/1 72/67/1
f 55/10/1 146/117/1 73/71/1
f 2/1/1 37/6/1 36/2/1
f 17/9/1 35/11/1 37/6/1
f 37/6/1 2/1/1 3/8/1
f 3/8/1 4/14/1 37/6/1
f 5/18/1 6/22/1 37/6/1
f 7/26/1 8/31/1 37/6/1
f 9/36/1 10/4/1 37/6/1
f 11/5/1 12/16/1 37/6/1
f 13/20/1 14/24/1 37/6/1
f 15/29/1 16/34/1 37/6/1
f 17/9/1 37/6/1 16/34/1
f 4/14/1 5/18/1 37/6/1
f 8/31/1 9/36/1 37/6/1
f 12/16/1 13/20/1 37/6/1
f 15/29/1 37/6/1 14/24/1
f 6/22/1 7/26/1 37/6/1
f 2/1/2 19/27/2 20/7/2
f 17/9/3 34/37/3 55/10/3
f 10/4/77 27/38/77 28/12/77
f 3/8/5 20/7/5 21/13/5
f 11/5/6 28/12/6 29/15/6
f 4/14/7 21/13/7 22/17/7
f 12/16/8 29/15/8 30/19/8
f 5/18/9 22/17/9 23/21/9
f 13/20/10 30/19/10 31/23/10
f 6/22/11 23/21/11 24/25/11
f 1/3/12 18/32/12 19/27/12
f 14/24/13 31/23/13 32/28/13
f 7/26/14 24/25/14 25/30/14
f 36/2/15 56/141/15 18/32/15
f 15/29/16 32/28/16 33/33/16
f 8/31/17 25/30/17 26/35/17
f 16/34/18 33/33/18 34/37/18
f 9/36/19 26/35/19 27/38/19
f 39/39/1 38/62/1 36/2/1
f 37/6/1 35/11/1 54/44/1
f 54/44/1 53/68/1 37/6/1
f 52/64/1 51/59/1 37/6/1
f 50/55/1 49/51/1 37/6/1
f 48/47/1 47/46/1 37/6/1
f 46/70/1 45/40/1 37/6/1
f 44/41/1 43/57/1 37/6/1
f 42/53/1 41/49/1 37/6/1
f 40/43/1 39/39/1 37/6/1
f 37/6/1 53/68/1 52/64/1
f 51/59/1 50/55/1 37/6/1
f 47/46/1 46/70/1 37/6/1
f 43/57/1 42/53/1 37/6/1
f 40/43/1 37/6/1 41/49/1
f 49/51/1 48/47/1 37/6/1
f 59/42/20 58/61/20 39/39/20
f 55/10/21 73/71/21 54/44/21
f 67/45/78 66/72/78 47/46/78
f 60/48/23 59/42/23 40/43/23
f 68/50/24 67/45/24 48/47/24
f 61/52/25 60/48/25 41/49/25
f 69/54/26 68/50/26 49/51/26
f 62/56/27 61/52/27 42/53/27
f 70/58/28 69/54/28 50/55/28
f 63/60/29 62/56/29 43/57/29
f 58/61/30 57/66/30 38/62/30
f 71/63/31 70/58/31 51/59/31
f 64/65/32 63/60/32 44/41/32
f 57/66/15 56/141/15 36/2/15
f 72/67/33 71/63/33 52/64/33
f 65/69/34 64/65/34 45/40/34
f 73/71/35 72/67/35 53/68/35
f 66/72/36 65/69/36 46/70/36
f 74/73/79 109/135/79 110/74/79
f 108/82/80 90/109/80 110/74/80
f 89/105/81 88/99/81 110/74/81
f 87/97/82 86/94/82 110/74/82
f 85/89/83 84/85/83 110/74/83
f 83/110/84 82/108/84 110/74/84
f 81/101/85 80/76/85 110/74/85
f 79/77/86 78/91/86 110/74/86
f 77/88/87 76/79/87 110/74/87
f 75/75/88 110/74/88 76/79/88
f 90/109/89 89/105/89 110/74/89
f 86/94/90 85/89/90 110/74/90
f 82/108/91 81/101/91 110/74/91
f 78/91/92 77/88/92 110/74/92
f 110/74/93 88/99/93 87/97/93
f 84/85/94 83/110/94 110/74/94
f 92/78/95 75/75/95 76/79/95
f 107/81/96 90/109/96 108/82/96
f 100/84/97 83/110/97 84/85/97
f 94/87/98 93/80/98 76/79/98
f 101/86/99 84/85/99 85/89/99
f 94/87/100 77/88/100 78/91/100
f 103/93/45 102/90/45 85/89/45
f 96/95/46 95/92/46 78/91/46
f 104/96/47 103/93/47 86/94/47
f 96/95/48 79/77/48 80/76/48
f 92/78/101 91/104/101 74/73/101
f 104/96/50 87/97/50 88/99/50
f 97/98/51 80/76/51 81/101/51
f 129/103/102 109/135/102 74/73/102
f 105/100/103 88/99/103 89/105/103
f 99/107/104 98/102/104 81/101/104
f 106/106/105 89/105/105 90/109/105
f 100/84/106 99/107/106 82/108/106
f 110/74/107 109/135/107 111/111/107
f 108/82/108 110/74/108 127/118/108
f 112/112/109 113/116/109 110/74/109
f 114/122/110 115/124/110 110/74/110
f 116/128/111 117/131/111 110/74/111
f 118/134/112 119/139/112 110/74/112
f 120/120/113 121/113/113 110/74/113
f 122/114/114 123/126/114 110/74/114
f 124/130/115 125/132/115 110/74/115
f 126/137/116 127/118/116 110/74/116
f 110/74/117 113/116/117 114/122/117
f 115/124/118 116/128/118 110/74/118
f 119/139/119 120/120/119 110/74/119
f 123/126/120 124/130/120 110/74/120
f 126/137/121 110/74/121 125/132/121
f 117/131/122 118/134/122 110/74/122
f 131/115/123 132/142/123 113/116/123
f 146/117/124 128/83/124 108/82/124
f 139/119/125 140/123/125 121/113/125
f 113/116/126 132/142/126 133/121/126
f 140/123/127 141/145/127 122/114/127
f 133/121/128 134/143/128 115/124/128
f 122/114/65 141/145/65 142/125/65
f 115/124/66 134/143/66 135/127/66
f 123/126/67 142/125/67 143/129/67
f 135/127/68 136/133/68 117/131/68
f 111/111/129 130/140/129 131/115/129
f 143/129/70 144/146/70 125/132/70
f 136/133/71 137/144/71 118/134/71
f 129/103/130 130/140/130 111/111/130
f 125/132/131 144/146/131 145/136/131
f 118/134/132 137/144/132 138/138/132
f 145/136/133 146/117/133 127/118/133
f 119/139/134 138/138/134 139/119/134
f 18/32/1 91/104/1 92/78/1
f 18/32/1 56/141/1 129/103/1
f 20/7/1 19/27/1 92/78/1
f 20/7/1 93/80/1 94/87/1
f 21/13/1 94/87/1 95/92/1
f 22/17/1 95/92/1 96/95/1
f 24/25/1 23/21/1 96/95/1
f 25/30/1 24/25/1 97/98/1
f 26/35/1 25/30/1 98/102/1
f 26/35/1 99/107/1 100/84/1
f 28/12/1 27/38/1 100/84/1
f 28/12/1 101/86/1 102/90/1
f 29/15/1 102/90/1 103/93/1
f 31/23/1 30/19/1 103/93/1
f 32/28/1 31/23/1 104/96/1
f 33/33/1 32/28/1 105/100/1
f 34/37/1 33/33/1 106/106/1
f 55/10/1 34/37/1 107/81/1
f 57/66/1 58/61/1 131/115/1
f 57/66/1 130/140/1 129/103/1
f 59/42/1 132/142/1 131/115/1
f 59/42/1 60/48/1 133/121/1
f 60/48/1 61/52/1 134/143/1
f 61/52/1 62/56/1 135/127/1
f 63/60/1 136/133/1 135/127/1
f 64/65/1 137/144/1 136/133/1
f 65/69/1 138/138/1 137/144/1
f 65/69/1 66/72/1 139/119/1
f 67/45/1 140/123/1 139/119/1
f 67/45/1 68/50/1 141/145/1
f 68/50/1 69/54/1 142/125/1
f 70/58/1 143/129/1 142/125/1
f 71/63/1 144/146/1 143/129/1
f 72/67/1 145/136/1 144/146/1
f 73/71/1 146/117/1 145/136/1
f 55/10/1 128/83/1 146/117/1
