# Blender v2.77 (sub 0) OBJ File: 'pb2_copy.blend'
# www.blender.org
mtllib bumper.mtl
o Circle.003_Circle.001
v -0.000000 -0.139079 -0.615271
v -0.120033 -0.139079 -0.603448
v -0.235454 -0.139079 -0.568436
v -0.341826 -0.139079 -0.511579
v -0.435062 -0.139079 -0.435062
v -0.511579 -0.139079 -0.341826
v -0.568436 -0.139079 -0.235454
v -0.603448 -0.139079 -0.120034
v -0.615270 -0.139079 -0.000000
v -0.603448 -0.139079 0.120033
v -0.568436 -0.139079 0.235453
v -0.511579 -0.139079 0.341826
v -0.435062 -0.139079 0.435062
v -0.341826 -0.139079 0.511578
v -0.235454 -0.139079 0.568435
v -0.120033 -0.139079 0.603448
v 0.000000 -0.139079 0.615270
v 0.120033 -0.139079 0.603448
v 0.235454 -0.139079 0.568435
v 0.341826 -0.139079 0.511578
v 0.435062 -0.139079 0.435061
v 0.511579 -0.139079 0.341825
v 0.568436 -0.139079 0.235453
v 0.603448 -0.139079 0.120032
v 0.615270 -0.139079 -0.000001
v 0.603448 -0.139079 -0.120034
v 0.568435 -0.139079 -0.235455
v 0.511578 -0.139079 -0.341827
v 0.435061 -0.139079 -0.435063
v 0.341825 -0.139079 -0.511579
v 0.235453 -0.139079 -0.568436
v 0.120032 -0.139079 -0.603449
v -0.000000 -0.139079 -0.615271
v -0.120033 -0.139079 -0.603448
v -0.235454 -0.139079 -0.568436
v -0.341826 -0.139079 -0.511579
v -0.435062 -0.139079 -0.435062
v -0.511579 -0.139079 -0.341826
v -0.568436 -0.139079 -0.235454
v -0.603448 -0.139079 -0.120034
v -0.615270 -0.139079 -0.000000
v -0.603448 -0.139079 0.120033
v -0.568436 -0.139079 0.235453
v -0.511579 -0.139079 0.341826
v -0.435062 -0.139079 0.435062
v -0.341826 -0.139079 0.511578
v -0.235454 -0.139079 0.568435
v -0.120033 -0.139079 0.603448
v 0.000000 -0.139079 0.615270
v 0.120033 -0.139079 0.603448
v 0.235454 -0.139079 0.568435
v 0.341826 -0.139079 0.511578
v 0.435062 -0.139079 0.435061
v 0.511579 -0.139079 0.341825
v 0.568436 -0.139079 0.235453
v 0.603448 -0.139079 0.120032
v 0.615270 -0.139079 -0.000001
v 0.603448 -0.139079 -0.120034
v 0.568435 -0.139079 -0.235455
v 0.511578 -0.139079 -0.341827
v 0.435061 -0.139079 -0.435063
v 0.341825 -0.139079 -0.511579
v 0.235453 -0.139079 -0.568436
v 0.120032 -0.139079 -0.603449
v -0.000000 -0.139079 -0.615271
v -0.120033 -0.139079 -0.603448
v -0.235454 -0.139079 -0.568436
v -0.341826 -0.139079 -0.511579
v -0.435062 -0.139079 -0.435062
v -0.511579 -0.139079 -0.341826
v -0.568436 -0.139079 -0.235454
v -0.603448 -0.139079 -0.120034
v -0.615270 -0.139079 -0.000000
v -0.603448 -0.139079 0.120033
v -0.568436 -0.139079 0.235453
v -0.511579 -0.139079 0.341826
v -0.435062 -0.139079 0.435062
v -0.341826 -0.139079 0.511578
v -0.235454 -0.139079 0.568435
v -0.120033 -0.139079 0.603448
v 0.000000 -0.139079 0.615270
v 0.120033 -0.139079 0.603448
v 0.235454 -0.139079 0.568435
v 0.341826 -0.139079 0.511578
v 0.435062 -0.139079 0.435061
v 0.511579 -0.139079 0.341825
v 0.568436 -0.139079 0.235453
v 0.603448 -0.139079 0.120032
v 0.615270 -0.139079 -0.000001
v 0.603448 -0.139079 -0.120034
v 0.568435 -0.139079 -0.235455
v 0.511578 -0.139079 -0.341827
v 0.435061 -0.139079 -0.435063
v 0.341825 -0.139079 -0.511579
v 0.235453 -0.139079 -0.568436
v 0.120032 -0.139079 -0.603449
v -0.000000 -0.244717 -0.703290
v -0.137205 -0.244717 -0.689776
v -0.269137 -0.244717 -0.649755
v -0.390727 -0.244717 -0.584764
v -0.497301 -0.244717 -0.497301
v -0.584764 -0.244717 -0.390727
v -0.649755 -0.244717 -0.269138
v -0.689776 -0.244717 -0.137205
v -0.703290 -0.244717 -0.000000
v -0.689776 -0.244717 0.137205
v -0.649755 -0.244717 0.269137
v -0.584764 -0.244717 0.390727
v -0.497301 -0.244717 0.497301
v -0.390727 -0.244717 0.584764
v -0.269137 -0.244717 0.649755
v -0.137205 -0.244717 0.689776
v 0.000000 -0.244717 0.703290
v 0.137205 -0.244717 0.689776
v 0.269138 -0.244717 0.649755
v 0.390727 -0.244717 0.584764
v 0.497301 -0.244717 0.497300
v 0.584764 -0.244717 0.390726
v 0.649755 -0.244717 0.269137
v 0.689776 -0.244717 0.137204
v 0.703290 -0.244717 -0.000001
v 0.689776 -0.244717 -0.137206
v 0.649755 -0.244717 -0.269138
v 0.584764 -0.244717 -0.390728
v 0.497300 -0.244717 -0.497302
v 0.390726 -0.244717 -0.584765
v 0.269136 -0.244717 -0.649756
v 0.137204 -0.244717 -0.689777
v -0.000000 -0.264417 -0.701841
v -0.136922 -0.264417 -0.688355
v -0.268583 -0.264417 -0.648417
v -0.389922 -0.264417 -0.583560
v -0.496276 -0.264417 -0.496277
v -0.583559 -0.264417 -0.389922
v -0.648416 -0.264417 -0.268583
v -0.688355 -0.264417 -0.136923
v -0.701841 -0.264417 -0.000000
v -0.688355 -0.264417 0.136922
v -0.648416 -0.264417 0.268582
v -0.583559 -0.264417 0.389922
v -0.496276 -0.264417 0.496276
v -0.389922 -0.264417 0.583559
v -0.268583 -0.264417 0.648416
v -0.136922 -0.264417 0.688355
v 0.000000 -0.264417 0.701841
v 0.136923 -0.264417 0.688355
v 0.268583 -0.264417 0.648416
v 0.389922 -0.264417 0.583559
v 0.496277 -0.264417 0.496276
v 0.583560 -0.264417 0.389921
v 0.648417 -0.264417 0.268582
v 0.688355 -0.264417 0.136921
v 0.701841 -0.264417 -0.000001
v 0.688355 -0.264417 -0.136923
v 0.648416 -0.264417 -0.268584
v 0.583559 -0.264417 -0.389923
v 0.496276 -0.264417 -0.496277
v 0.389921 -0.264417 -0.583560
v 0.268582 -0.264417 -0.648417
v 0.136921 -0.264417 -0.688356
v -0.000000 -0.361168 -0.512453
v -0.099975 -0.361168 -0.502606
v -0.196107 -0.361168 -0.473445
v -0.284703 -0.361168 -0.426089
v -0.362359 -0.361168 -0.362359
v -0.426089 -0.361168 -0.284704
v -0.473444 -0.361168 -0.196108
v -0.502606 -0.361168 -0.099975
v -0.512453 -0.361168 -0.000000
v -0.502606 -0.361168 0.099974
v -0.473445 -0.361168 0.196107
v -0.426089 -0.361168 0.284703
v -0.362359 -0.361168 0.362358
v -0.284703 -0.361168 0.426088
v -0.196107 -0.361168 0.473444
v -0.099975 -0.361168 0.502605
v 0.000000 -0.361168 0.512452
v 0.099975 -0.361168 0.502605
v 0.196107 -0.361168 0.473444
v 0.284703 -0.361168 0.426088
v 0.362359 -0.361168 0.362358
v 0.426089 -0.361168 0.284703
v 0.473444 -0.361168 0.196106
v 0.502606 -0.361168 0.099974
v 0.512452 -0.361168 -0.000001
v 0.502606 -0.361168 -0.099976
v 0.473444 -0.361168 -0.196108
v 0.426088 -0.361168 -0.284704
v 0.362358 -0.361168 -0.362360
v 0.284703 -0.361168 -0.426090
v 0.196106 -0.361168 -0.473445
v 0.099974 -0.361168 -0.502606
v -0.000000 -0.497784 -0.512453
v -0.099975 -0.497784 -0.502606
v -0.196107 -0.497784 -0.473445
v -0.284703 -0.497784 -0.426089
v -0.362359 -0.497784 -0.362359
v -0.426089 -0.497784 -0.284704
v -0.473444 -0.497784 -0.196108
v -0.502606 -0.497784 -0.099975
v -0.512453 -0.497784 -0.000001
v -0.502606 -0.497784 0.099974
v -0.473445 -0.497784 0.196106
v -0.426089 -0.497784 0.284703
v -0.362359 -0.497784 0.362358
v -0.284703 -0.497784 0.426088
v -0.196107 -0.497784 0.473444
v -0.099975 -0.497784 0.502605
v 0.000000 -0.497784 0.512452
v 0.099975 -0.497784 0.502605
v 0.196107 -0.497784 0.473444
v 0.284703 -0.497784 0.426088
v 0.362359 -0.497784 0.362358
v 0.426089 -0.497784 0.284703
v 0.473444 -0.497784 0.196106
v 0.502606 -0.497784 0.099974
v 0.512452 -0.497784 -0.000001
v 0.502606 -0.497784 -0.099976
v 0.473444 -0.497784 -0.196108
v 0.426088 -0.497784 -0.284704
v 0.362358 -0.497784 -0.362360
v 0.284703 -0.497784 -0.426090
v 0.196106 -0.497784 -0.473445
v 0.099974 -0.497784 -0.502607
vt 0.0000 0.0000
vt 0.0000 0.0000
vt 0.0000 0.0000
vt 0.0000 0.0000
vt 0.0000 0.0000
vt 0.0000 0.0000
vt 0.0000 0.0000
vt 0.0000 0.0000
vt 0.0000 0.0000
vt 0.0000 0.0000
vt 0.0000 0.0000
vt 0.0000 0.0000
vt 0.0000 0.0000
vt 0.0000 0.0000
vt 0.0000 0.0000
vt 0.0000 0.0000
vt 0.0000 0.0000
vt 0.0000 0.0000
vt 0.0000 0.0000
vt 0.0000 0.0000
vt 0.0000 0.0000
vt 0.0000 0.0000
vt 0.0000 0.0000
vt 0.0000 0.0000
vt 0.0000 0.0000
vt 0.0000 0.0000
vt 0.0000 0.0000
vt 0.0000 0.0000
vt 0.0000 0.0000
vt 0.0000 0.0000
vt 0.0000 0.0000
vt 0.0000 0.0000
vt 0.0000 0.0000
vt 0.0000 0.0000
vt 0.0000 0.0000
vt 0.0000 0.0000
vt 0.0000 0.0000
vt 0.0000 0.0000
vt 0.0000 0.0000
vt 0.0000 0.0000
vt 0.0000 0.0000
vt 0.0000 0.0000
vt 0.0000 0.0000
vt 0.0000 0.0000
vt 0.0000 0.0000
vt 0.0000 0.0000
vt 0.0000 0.0000
vt 0.0000 0.0000
vt 0.0000 0.0000
vt 0.0000 0.0000
vt 0.0000 0.0000
vt 0.0000 0.0000
vt 0.0000 0.0000
vt 0.0000 0.0000
vt 0.0000 0.0000
vt 0.0000 0.0000
vt 0.0000 0.0000
vt 0.0000 0.0000
vt 0.0000 0.0000
vt 0.0000 0.0000
vt 0.0000 0.0000
vt 0.0000 0.0000
vt 0.0000 0.0000
vt 0.0000 0.0000
vt 0.0000 0.0000
vt 0.0000 0.0000
vt 0.0000 0.0000
vt 0.0000 0.0000
vt 0.0000 0.0000
vt 0.0000 0.0000
vt 0.0000 0.0000
vt 0.0000 0.0000
vt 0.0000 0.0000
vt 0.0000 0.0000
vt 0.0000 0.0000
vt 0.0000 0.0000
vt 0.0000 0.0000
vt 0.0000 0.0000
vt 0.0000 0.0000
vt 0.0000 0.0000
vt 0.0000 0.0000
vt 0.0000 0.0000
vt 0.0000 0.0000
vt 0.0000 0.0000
vt 0.0000 0.0000
vt 0.0000 0.0000
vt 0.0000 0.0000
vt 0.0000 0.0000
vt 0.0000 0.0000
vt 0.0000 0.0000
vt 0.0000 0.0000
vt 0.0000 0.0000
vt 0.0000 0.0000
vt 0.0000 0.0000
vt 0.0000 0.0000
vt 0.0000 0.0000
vt 0.0000 0.8683
vt 0.0518 0.9382
vt 0.0000 0.9258
vt 0.9027 0.4419
vt 0.8213 0.4002
vt 0.8875 0.3878
vt 0.8125 0.5645
vt 0.7228 0.5650
vt 0.7797 0.5320
vt 0.0000 0.8098
vt 0.0518 0.8725
vt 0.9482 0.8498
vt 1.0000 0.9241
vt 0.9482 0.9039
vt 0.0000 0.7524
vt 0.0518 0.8056
vt 0.9482 0.7924
vt 1.0000 0.8622
vt 0.0000 0.6983
vt 0.0518 0.7400
vt 0.9482 0.7338
vt 1.0000 0.7966
vt 0.7797 0.0702
vt 0.7603 0.0000
vt 0.8125 0.0377
vt 0.9482 0.6764
vt 1.0000 0.7297
vt 0.7517 0.1116
vt 0.7228 0.0372
vt 0.9482 0.6223
vt 1.0000 0.6640
vt 0.7298 0.1603
vt 0.6908 0.0845
vt 0.9526 0.0702
vt 0.9332 0.0000
vt 0.9854 0.0377
vt 0.7146 0.2144
vt 0.6657 0.1402
vt 0.9246 0.1116
vt 0.8957 0.0372
vt 0.7069 0.2718
vt 0.6485 0.2020
vt 0.8386 0.1402
vt 0.8637 0.0845
vt 0.7069 0.3304
vt 0.6396 0.2676
vt 0.8637 0.5177
vt 0.8386 0.4620
vt 0.9027 0.1603
vt 0.8213 0.2020
vt 0.6485 0.4002
vt 0.6396 0.3346
vt 0.9526 0.5320
vt 0.9246 0.4906
vt 0.8798 0.2718
vt 0.8875 0.2144
vt 0.7298 0.4419
vt 0.7146 0.3878
vt 0.9854 0.5645
vt 0.8957 0.5650
vt 0.8125 0.3346
vt 0.8125 0.2676
vt 0.7517 0.4906
vt 0.6657 0.4620
vt 0.0518 1.0000
vt 0.0000 0.9799
vt 0.8798 0.3304
vt 0.6908 0.5177
vt 0.5237 0.6024
vt 0.4475 0.5585
vt 0.4858 0.5314
vt 0.6396 0.3725
vt 0.5704 0.3147
vt 0.6396 0.3057
vt 0.0714 0.1229
vt 0.1300 0.2218
vt 0.0364 0.1785
vt 0.4713 0.6395
vt 0.4050 0.5771
vt 0.6274 0.4380
vt 0.5704 0.3634
vt 0.1159 0.0757
vt 0.1555 0.1812
vt 0.4131 0.6651
vt 0.3599 0.5866
vt 0.5438 0.4563
vt 0.5614 0.4113
vt 0.1683 0.0386
vt 0.1880 0.1468
vt 0.3513 0.6781
vt 0.3139 0.5866
vt 0.2265 0.0130
vt 0.2263 0.1197
vt 0.2883 0.6781
vt 0.2688 0.5771
vt 0.2883 0.0000
vt 0.2688 0.1010
vt 0.2265 0.6651
vt 0.2263 0.5585
vt 0.3513 0.0000
vt 0.3139 0.0915
vt 0.1683 0.6395
vt 0.1880 0.5314
vt 0.4131 0.0130
vt 0.3599 0.0915
vt 0.1159 0.6024
vt 0.1555 0.4969
vt 0.4713 0.0386
vt 0.4050 0.1010
vt 0.0714 0.5552
vt 0.1300 0.4563
vt 0.5237 0.0757
vt 0.4475 0.1197
vt 0.0123 0.4380
vt 0.0364 0.4997
vt 0.5682 0.1229
vt 0.4858 0.1468
vt 0.1034 0.3634
vt 0.1124 0.4113
vt 0.6032 0.1785
vt 0.5183 0.1812
vt 0.0000 0.3725
vt 0.1034 0.3147
vt 0.5682 0.5552
vt 0.6032 0.4997
vt 0.6274 0.2402
vt 0.5438 0.2218
vt 0.0123 0.2402
vt 0.0000 0.3057
vt 0.5183 0.4969
vt 0.5614 0.2668
vt 0.1124 0.2668
vt 0.8811 0.7701
vt 0.8141 0.7223
vt 0.8811 0.7223
vt 0.9482 0.8667
vt 0.8811 0.9118
vt 0.8811 0.8667
vt 0.8811 0.8189
vt 0.8141 0.7701
vt 0.9482 0.9118
vt 0.8811 0.9523
vt 0.8811 0.8667
vt 0.8141 0.8189
vt 0.9482 0.9523
vt 0.8811 0.9868
vt 0.8811 0.9118
vt 0.8141 0.8667
vt 0.7269 0.6022
vt 0.6587 0.6427
vt 0.6769 0.6022
vt 0.8811 0.9523
vt 0.8141 0.9118
vt 0.7086 0.6427
vt 0.6461 0.6878
vt 0.8811 0.9868
vt 0.8141 0.9523
vt 0.6960 0.6878
vt 0.6396 0.7356
vt 0.7958 0.6427
vt 0.7642 0.6022
vt 0.8141 0.6022
vt 0.6896 0.7844
vt 0.6896 0.7356
vt 0.8141 0.9178
vt 0.7459 0.8773
vt 0.7958 0.8773
vt 0.7832 0.6878
vt 0.7459 0.6427
vt 0.6960 0.8322
vt 0.6396 0.7844
vt 0.9482 0.6367
vt 0.8811 0.6022
vt 0.9482 0.6022
vt 0.7768 0.7356
vt 0.7333 0.6878
vt 0.6587 0.8773
vt 0.6461 0.8322
vt 0.8811 0.6772
vt 0.8811 0.6367
vt 0.7768 0.7844
vt 0.7269 0.7356
vt 0.7269 0.9178
vt 0.7086 0.8773
vt 0.9482 0.6772
vt 0.8811 0.7223
vt 0.7832 0.8322
vt 0.7269 0.7844
vt 0.8811 0.6367
vt 0.8141 0.6022
vt 0.8811 0.6022
vt 0.9482 0.7223
vt 0.8811 0.7701
vt 0.7333 0.8322
vt 0.8811 0.6772
vt 0.8141 0.6367
vt 0.9482 0.7701
vt 0.8811 0.8189
vt 0.8141 0.6772
vt 0.9482 0.8189
vt 0.7603 0.6022
vt 0.0518 0.6781
vt 1.0000 0.6022
vt 0.9332 0.6022
vt 0.9482 0.9868
vt 0.8141 0.9868
vt 0.7642 0.9178
vt 0.6769 0.9178
vn 0.0000 0.0000 1.0000
vn 0.5950 -0.6383 0.4883
vn -0.0755 -0.6383 0.7661
vn -0.3629 -0.6383 -0.6789
vn 0.6789 -0.6383 0.3629
vn -0.4883 -0.6383 -0.5950
vn 0.7366 -0.6383 0.2235
vn -0.5950 -0.6383 -0.4883
vn 0.7661 -0.6383 0.0755
vn -0.6789 -0.6383 -0.3629
vn 0.7661 -0.6383 -0.0755
vn -0.7366 -0.6383 -0.2235
vn 0.7366 -0.6383 -0.2235
vn -0.7661 -0.6383 -0.0755
vn 0.6789 -0.6383 -0.3629
vn -0.7661 -0.6383 0.0755
vn 0.5950 -0.6383 -0.4883
vn -0.7366 -0.6383 0.2235
vn 0.4883 -0.6383 -0.5950
vn -0.6789 -0.6383 0.3629
vn 0.3629 -0.6383 -0.6789
vn 0.0755 -0.6383 0.7661
vn -0.5950 -0.6383 0.4883
vn 0.2235 -0.6383 -0.7366
vn 0.2235 -0.6383 0.7366
vn -0.4883 -0.6383 0.5950
vn 0.0755 -0.6383 -0.7661
vn 0.3629 -0.6383 0.6789
vn -0.3629 -0.6383 0.6789
vn -0.0755 -0.6383 -0.7661
vn 0.4883 -0.6383 0.5950
vn -0.2235 -0.6383 0.7366
vn -0.2235 -0.6383 -0.7366
vn 0.2153 0.8896 0.4028
vn -0.2153 0.8896 0.4028
vn -0.0448 0.8896 -0.4545
vn 0.2897 0.8896 0.3530
vn -0.1326 0.8896 0.4370
vn -0.1326 0.8896 -0.4370
vn 0.3530 0.8896 0.2897
vn -0.0448 0.8896 0.4545
vn -0.2153 0.8896 -0.4028
vn 0.4028 0.8896 0.2153
vn -0.2897 0.8896 -0.3530
vn 0.4370 0.8896 0.1326
vn -0.3530 0.8896 -0.2897
vn 0.4545 0.8896 0.0448
vn -0.4028 0.8896 -0.2153
vn 0.4545 0.8896 -0.0448
vn -0.4370 0.8896 -0.1326
vn 0.4370 0.8896 -0.1326
vn -0.4545 0.8896 -0.0448
vn 0.4028 0.8896 -0.2153
vn -0.4545 0.8896 0.0448
vn 0.3530 0.8896 -0.2897
vn -0.4370 0.8896 0.1326
vn 0.2897 0.8896 -0.3530
vn -0.4028 0.8896 0.2153
vn 0.2153 0.8896 -0.4028
vn 0.0448 0.8896 0.4545
vn -0.3530 0.8896 0.2897
vn 0.1326 0.8896 -0.4370
vn 0.1326 0.8896 0.4370
vn -0.2897 0.8896 0.3530
vn 0.0448 0.8896 -0.4545
vn -0.7730 0.0000 -0.6344
vn 0.9952 0.0000 0.0980
vn -0.8819 -0.0000 -0.4714
vn 0.9952 0.0000 -0.0980
vn -0.9569 0.0000 -0.2903
vn 0.9569 0.0000 -0.2903
vn -0.9952 -0.0000 -0.0980
vn 0.8819 0.0000 -0.4714
vn -0.9952 -0.0000 0.0980
vn 0.7730 0.0000 -0.6344
vn -0.9569 -0.0000 0.2903
vn 0.6344 0.0000 -0.7730
vn -0.8819 -0.0000 0.4714
vn 0.4714 0.0000 -0.8819
vn 0.0980 -0.0000 0.9952
vn -0.7730 -0.0000 0.6344
vn 0.2903 0.0000 -0.9569
vn 0.2903 -0.0000 0.9569
vn -0.6344 -0.0000 0.7730
vn 0.0980 0.0000 -0.9952
vn 0.4714 -0.0000 0.8819
vn -0.4714 -0.0000 0.8819
vn -0.0980 0.0000 -0.9952
vn 0.6344 -0.0000 0.7730
vn -0.2903 -0.0000 0.9569
vn -0.2903 0.0000 -0.9569
vn 0.7730 -0.0000 0.6344
vn -0.0980 -0.0000 0.9952
vn -0.4714 0.0000 -0.8819
vn 0.8819 0.0000 0.4714
vn -0.6344 0.0000 -0.7730
vn 0.9569 0.0000 0.2903
usemtl Material.001
s off
f 21/1/1 54/2/1 53/3/1
f 8/4/1 41/5/1 40/6/1
f 22/7/1 55/8/1 54/2/1
f 9/9/1 42/10/1 41/5/1
f 23/11/1 56/12/1 55/8/1
f 10/13/1 43/14/1 42/10/1
f 24/15/1 57/16/1 56/12/1
f 11/17/1 44/18/1 43/14/1
f 25/19/1 58/20/1 57/16/1
f 12/21/1 45/22/1 44/18/1
f 26/23/1 59/24/1 58/20/1
f 13/25/1 46/26/1 45/22/1
f 27/27/1 60/28/1 59/24/1
f 14/29/1 47/30/1 46/26/1
f 1/31/1 34/32/1 33/33/1
f 28/34/1 61/35/1 60/28/1
f 15/36/1 48/37/1 47/30/1
f 2/38/1 35/39/1 34/32/1
f 29/40/1 62/41/1 61/35/1
f 16/42/1 49/43/1 48/37/1
f 3/44/1 36/45/1 35/39/1
f 30/46/1 63/47/1 62/41/1
f 17/48/1 50/49/1 49/43/1
f 4/50/1 37/51/1 36/45/1
f 31/52/1 64/53/1 63/47/1
f 18/54/1 51/55/1 50/49/1
f 5/56/1 38/57/1 37/51/1
f 32/58/1 33/33/1 64/53/1
f 19/59/1 52/60/1 51/55/1
f 6/61/1 39/62/1 38/57/1
f 20/63/1 53/3/1 52/60/1
f 7/64/1 40/6/1 39/62/1
f 34/32/1 67/65/1 66/66/1
f 61/35/1 94/67/1 93/68/1
f 48/37/1 81/69/1 80/70/1
f 35/39/1 68/71/1 67/65/1
f 62/41/1 95/72/1 94/67/1
f 49/43/1 82/73/1 81/69/1
f 36/45/1 69/74/1 68/71/1
f 63/47/1 96/75/1 95/72/1
f 50/49/1 83/76/1 82/73/1
f 37/51/1 70/77/1 69/74/1
f 64/53/1 65/78/1 96/75/1
f 51/55/1 84/79/1 83/76/1
f 38/57/1 71/80/1 70/77/1
f 52/60/1 85/81/1 84/79/1
f 39/62/1 72/82/1 71/80/1
f 53/3/1 86/83/1 85/81/1
f 40/6/1 73/84/1 72/82/1
f 54/2/1 87/85/1 86/83/1
f 41/5/1 74/86/1 73/84/1
f 55/8/1 88/87/1 87/85/1
f 42/10/1 75/88/1 74/86/1
f 56/12/1 89/89/1 88/87/1
f 43/14/1 76/90/1 75/88/1
f 57/16/1 90/91/1 89/89/1
f 44/18/1 77/92/1 76/90/1
f 58/20/1 91/93/1 90/91/1
f 45/22/1 78/94/1 77/92/1
f 59/24/1 92/95/1 91/93/1
f 46/26/1 79/96/1 78/94/1
f 33/33/1 66/66/1 65/78/1
f 60/28/1 93/68/1 92/95/1
f 47/30/1 80/70/1 79/96/1
f 70/97/2 101/98/2 69/99/2
f 65/100/3 128/101/3 96/102/3
f 84/103/4 115/104/4 83/105/4
f 71/106/5 102/107/5 70/97/5
f 85/108/6 116/109/6 84/110/6
f 72/111/7 103/112/7 71/106/7
f 86/113/8 117/114/8 85/108/8
f 73/115/9 104/116/9 72/111/9
f 87/117/10 118/118/10 86/113/10
f 74/119/11 105/120/11 73/121/11
f 88/122/12 119/123/12 87/117/12
f 75/124/13 106/125/13 74/119/13
f 89/126/14 120/127/14 88/122/14
f 76/128/15 107/129/15 75/124/15
f 90/130/16 121/131/16 89/132/16
f 77/133/17 108/134/17 76/128/17
f 91/135/18 122/136/18 90/130/18
f 78/137/19 109/138/19 77/133/19
f 91/135/20 124/139/20 123/140/20
f 79/141/21 110/142/21 78/137/21
f 65/100/22 98/143/22 97/144/22
f 92/145/23 125/146/23 124/139/23
f 79/141/24 112/147/24 111/148/24
f 67/149/25 98/143/25 66/150/25
f 94/151/26 125/146/26 93/152/26
f 81/153/27 112/147/27 80/154/27
f 68/155/28 99/156/28 67/149/28
f 94/151/29 127/157/29 126/158/29
f 82/159/30 113/160/30 81/153/30
f 69/99/31 100/161/31 68/162/31
f 95/163/32 128/101/32 127/157/32
f 82/159/33 115/104/33 114/164/33
f 131/165/34 164/166/34 163/167/34
f 159/168/35 190/169/35 158/170/35
f 146/171/36 177/172/36 145/173/36
f 132/174/37 165/175/37 164/166/37
f 160/176/38 191/177/38 159/168/38
f 147/178/39 178/179/39 146/171/39
f 133/180/40 166/181/40 165/175/40
f 160/176/41 161/182/41 192/183/41
f 148/184/42 179/185/42 147/178/42
f 134/186/43 167/187/43 166/181/43
f 149/188/44 180/189/44 148/184/44
f 135/190/45 168/191/45 167/187/45
f 150/192/46 181/193/46 149/188/46
f 136/194/47 169/195/47 168/191/47
f 151/196/48 182/197/48 150/192/48
f 137/198/49 170/199/49 169/195/49
f 152/200/50 183/201/50 151/196/50
f 138/202/51 171/203/51 170/199/51
f 153/204/52 184/205/52 152/200/52
f 139/206/53 172/207/53 171/203/53
f 154/208/54 185/209/54 153/204/54
f 141/210/55 172/207/55 140/211/55
f 155/212/56 186/213/56 154/208/56
f 141/210/57 174/214/57 173/215/57
f 156/216/58 187/217/58 155/212/58
f 142/218/59 175/219/59 174/214/59
f 130/220/60 161/182/60 129/221/60
f 157/222/61 188/223/61 156/216/61
f 144/224/62 175/219/62 143/225/62
f 130/220/63 163/167/63 162/226/63
f 158/170/64 189/227/64 157/222/64
f 145/173/65 176/228/65 144/224/65
f 182/229/66 213/230/66 181/231/66
f 168/232/67 201/233/67 200/234/67
f 183/235/68 214/236/68 182/229/68
f 169/237/69 202/238/69 201/233/69
f 184/239/70 215/240/70 183/235/70
f 170/241/71 203/242/71 202/238/71
f 185/243/72 216/244/72 184/239/72
f 171/245/73 204/246/73 203/247/73
f 186/248/74 217/249/74 185/243/74
f 172/250/75 205/251/75 204/246/75
f 187/252/76 218/253/76 186/248/76
f 173/254/77 206/255/77 205/251/77
f 188/256/78 219/257/78 187/258/78
f 175/259/79 206/255/79 174/260/79
f 162/261/80 193/262/80 161/263/80
f 189/264/81 220/265/81 188/256/81
f 176/266/82 207/267/82 175/259/82
f 163/268/83 194/269/83 162/270/83
f 190/271/84 221/272/84 189/264/84
f 176/266/85 209/273/85 208/274/85
f 163/268/86 196/275/86 195/276/86
f 191/277/87 222/278/87 190/271/87
f 178/279/88 209/273/88 177/280/88
f 164/281/89 197/282/89 196/275/89
f 192/283/90 223/284/90 191/277/90
f 179/285/91 210/286/91 178/287/91
f 165/288/92 198/289/92 197/282/92
f 161/263/93 224/290/93 192/283/93
f 180/291/94 211/292/94 179/285/94
f 166/293/95 199/294/95 198/289/95
f 181/231/96 212/295/96 180/291/96
f 167/296/97 200/234/97 199/294/97
f 21/1/1 22/7/1 54/2/1
f 8/4/1 9/9/1 41/5/1
f 22/7/1 23/11/1 55/8/1
f 9/9/1 10/13/1 42/10/1
f 23/11/1 24/15/1 56/12/1
f 10/13/1 11/17/1 43/14/1
f 24/15/1 25/19/1 57/16/1
f 11/17/1 12/21/1 44/18/1
f 25/19/1 26/23/1 58/20/1
f 12/21/1 13/25/1 45/22/1
f 26/23/1 27/27/1 59/24/1
f 13/25/1 14/29/1 46/26/1
f 27/27/1 28/34/1 60/28/1
f 14/29/1 15/36/1 47/30/1
f 1/31/1 2/38/1 34/32/1
f 28/34/1 29/40/1 61/35/1
f 15/36/1 16/42/1 48/37/1
f 2/38/1 3/44/1 35/39/1
f 29/40/1 30/46/1 62/41/1
f 16/42/1 17/48/1 49/43/1
f 3/44/1 4/50/1 36/45/1
f 30/46/1 31/52/1 63/47/1
f 17/48/1 18/54/1 50/49/1
f 4/50/1 5/56/1 37/51/1
f 31/52/1 32/58/1 64/53/1
f 18/54/1 19/59/1 51/55/1
f 5/56/1 6/61/1 38/57/1
f 32/58/1 1/31/1 33/33/1
f 19/59/1 20/63/1 52/60/1
f 6/61/1 7/64/1 39/62/1
f 20/63/1 21/1/1 53/3/1
f 7/64/1 8/4/1 40/6/1
f 34/32/1 35/39/1 67/65/1
f 61/35/1 62/41/1 94/67/1
f 48/37/1 49/43/1 81/69/1
f 35/39/1 36/45/1 68/71/1
f 62/41/1 63/47/1 95/72/1
f 49/43/1 50/49/1 82/73/1
f 36/45/1 37/51/1 69/74/1
f 63/47/1 64/53/1 96/75/1
f 50/49/1 51/55/1 83/76/1
f 37/51/1 38/57/1 70/77/1
f 64/53/1 33/33/1 65/78/1
f 51/55/1 52/60/1 84/79/1
f 38/57/1 39/62/1 71/80/1
f 52/60/1 53/3/1 85/81/1
f 39/62/1 40/6/1 72/82/1
f 53/3/1 54/2/1 86/83/1
f 40/6/1 41/5/1 73/84/1
f 54/2/1 55/8/1 87/85/1
f 41/5/1 42/10/1 74/86/1
f 55/8/1 56/12/1 88/87/1
f 42/10/1 43/14/1 75/88/1
f 56/12/1 57/16/1 89/89/1
f 43/14/1 44/18/1 76/90/1
f 57/16/1 58/20/1 90/91/1
f 44/18/1 45/22/1 77/92/1
f 58/20/1 59/24/1 91/93/1
f 45/22/1 46/26/1 78/94/1
f 59/24/1 60/28/1 92/95/1
f 46/26/1 47/30/1 79/96/1
f 33/33/1 34/32/1 66/66/1
f 60/28/1 61/35/1 93/68/1
f 47/30/1 48/37/1 80/70/1
f 70/97/2 102/107/2 101/98/2
f 65/100/3 97/144/3 128/101/3
f 84/103/4 116/297/4 115/104/4
f 71/106/5 103/112/5 102/107/5
f 85/108/6 117/114/6 116/109/6
f 72/111/7 104/116/7 103/112/7
f 86/113/8 118/118/8 117/114/8
f 73/115/9 105/298/9 104/116/9
f 87/117/10 119/123/10 118/118/10
f 74/119/11 106/125/11 105/120/11
f 88/122/12 120/127/12 119/123/12
f 75/124/13 107/129/13 106/125/13
f 89/126/14 121/299/14 120/127/14
f 76/128/15 108/134/15 107/129/15
f 90/130/16 122/136/16 121/131/16
f 77/133/17 109/138/17 108/134/17
f 91/135/18 123/140/18 122/136/18
f 78/137/19 110/142/19 109/138/19
f 91/135/20 92/145/20 124/139/20
f 79/141/21 111/148/21 110/142/21
f 65/100/22 66/150/22 98/143/22
f 92/145/23 93/152/23 125/146/23
f 79/141/24 80/154/24 112/147/24
f 67/149/25 99/156/25 98/143/25
f 94/151/26 126/158/26 125/146/26
f 81/153/27 113/160/27 112/147/27
f 68/155/28 100/300/28 99/156/28
f 94/151/29 95/163/29 127/157/29
f 82/159/30 114/164/30 113/160/30
f 69/99/31 101/98/31 100/161/31
f 95/163/32 96/102/32 128/101/32
f 82/159/33 83/105/33 115/104/33
f 131/165/34 132/174/34 164/166/34
f 159/168/35 191/177/35 190/169/35
f 146/171/36 178/179/36 177/172/36
f 132/174/37 133/180/37 165/175/37
f 160/176/38 192/183/38 191/177/38
f 147/178/39 179/185/39 178/179/39
f 133/180/40 134/186/40 166/181/40
f 160/176/41 129/221/41 161/182/41
f 148/184/42 180/189/42 179/185/42
f 134/186/43 135/190/43 167/187/43
f 149/188/44 181/193/44 180/189/44
f 135/190/45 136/194/45 168/191/45
f 150/192/46 182/197/46 181/193/46
f 136/194/47 137/198/47 169/195/47
f 151/196/48 183/201/48 182/197/48
f 137/198/49 138/202/49 170/199/49
f 152/200/50 184/205/50 183/201/50
f 138/202/51 139/206/51 171/203/51
f 153/204/52 185/209/52 184/205/52
f 139/206/53 140/211/53 172/207/53
f 154/208/54 186/213/54 185/209/54
f 141/210/55 173/215/55 172/207/55
f 155/212/56 187/217/56 186/213/56
f 141/210/57 142/218/57 174/214/57
f 156/216/58 188/223/58 187/217/58
f 142/218/59 143/225/59 175/219/59
f 130/220/60 162/226/60 161/182/60
f 157/222/61 189/227/61 188/223/61
f 144/224/62 176/228/62 175/219/62
f 130/220/63 131/165/63 163/167/63
f 158/170/64 190/169/64 189/227/64
f 145/173/65 177/172/65 176/228/65
f 182/229/66 214/236/66 213/230/66
f 168/232/67 169/237/67 201/233/67
f 183/235/68 215/240/68 214/236/68
f 169/237/69 170/241/69 202/238/69
f 184/239/70 216/244/70 215/240/70
f 170/241/71 171/301/71 203/242/71
f 185/243/72 217/249/72 216/244/72
f 171/245/73 172/250/73 204/246/73
f 186/248/74 218/253/74 217/249/74
f 172/250/75 173/254/75 205/251/75
f 187/252/76 219/302/76 218/253/76
f 173/254/77 174/260/77 206/255/77
f 188/256/78 220/265/78 219/257/78
f 175/259/79 207/267/79 206/255/79
f 162/261/80 194/303/80 193/262/80
f 189/264/81 221/272/81 220/265/81
f 176/266/82 208/274/82 207/267/82
f 163/268/83 195/276/83 194/269/83
f 190/271/84 222/278/84 221/272/84
f 176/266/85 177/280/85 209/273/85
f 163/268/86 164/281/86 196/275/86
f 191/277/87 223/284/87 222/278/87
f 178/279/88 210/304/88 209/273/88
f 164/281/89 165/288/89 197/282/89
f 192/283/90 224/290/90 223/284/90
f 179/285/91 211/292/91 210/286/91
f 165/288/92 166/293/92 198/289/92
f 161/263/93 193/262/93 224/290/93
f 180/291/94 212/295/94 211/292/94
f 166/293/95 167/296/95 199/294/95
f 181/231/96 213/230/96 212/295/96
f 167/296/97 168/232/97 200/234/97
