# Blender v2.77 (sub 0) OBJ File: 'pb2_copy.blend'
# www.blender.org
mtllib leftBoardC.mtl
o Cube.002_Cube.004
v 1.122444 0.467446 0.834363
v 1.122444 -0.467446 0.834363
v -1.016598 0.467446 -0.960505
v -1.016598 -0.467446 -0.960505
v 1.016598 0.467446 0.960505
v 1.016598 -0.467446 0.960505
v -1.122444 0.467446 -0.834363
v -1.122444 -0.467446 -0.834363
vt 0.8037 0.4460
vt 0.4019 0.0012
vt 0.4019 0.4460
vt 0.9725 0.4460
vt 0.5706 0.0012
vt 0.5706 0.4460
vt 0.0000 0.4460
vt 0.4019 0.0012
vt 0.4019 0.4460
vt 0.1687 0.4460
vt 0.5706 0.0012
vt 0.5706 0.4460
vt 0.5706 1.0000
vt 0.9725 0.5552
vt 0.5706 0.5552
vt 0.5706 1.0000
vt 0.1687 0.5552
vt 0.5706 0.5552
vt 0.8037 0.0012
vt 0.9725 0.0012
vt 0.0000 0.0012
vt 0.1687 0.0012
vt 0.9725 1.0000
vt 0.1687 1.0000
vn 0.6428 0.0000 -0.7660
vn -0.7660 0.0000 -0.6428
vn -0.6428 0.0000 0.7660
vn 0.7660 0.0000 0.6428
vn 0.0000 1.0000 0.0000
vn 0.0000 -1.0000 0.0000
usemtl None
s off
f 4/1/1 1/2/1 2/3/1
f 8/4/2 3/5/2 4/6/2
f 6/7/3 7/8/3 8/9/3
f 2/10/4 5/11/4 6/12/4
f 3/13/5 5/14/5 1/15/5
f 8/16/6 2/17/6 6/18/6
f 4/1/1 3/19/1 1/2/1
f 8/4/2 7/20/2 3/5/2
f 6/7/3 5/21/3 7/8/3
f 2/10/4 1/22/4 5/11/4
f 3/13/5 7/23/5 5/14/5
f 8/16/6 4/24/6 2/17/6
