# Blender v2.77 (sub 0) OBJ File: 'pb2_copy.blend'
# www.blender.org
mtllib rightBoardC.mtl
o Cube.001_Cube.002
v -0.732035 0.467446 0.682561
v -0.732035 -0.467446 0.682561
v 0.799622 0.467446 -0.601972
v 0.799622 -0.467446 -0.601972
v -0.799622 0.467446 0.601972
v -0.799622 -0.467446 0.601972
v 0.732035 0.467446 -0.682561
v 0.732035 -0.467446 -0.682561
vt 0.2500 0.3333
vt 0.5000 0.6667
vt 0.2500 0.6667
vt 0.0000 0.3333
vt 0.2500 0.6667
vt 0.0000 0.6667
vt 0.0000 0.0000
vt 0.2500 0.3333
vt 0.5000 0.0000
vt 0.2500 0.3333
vt 0.2500 0.0000
vt 0.7500 0.3333
vt 0.5000 0.0000
vt 0.7500 0.0000
vt 0.2500 0.6667
vt 0.0000 1.0000
vt 0.0000 0.6667
vt 0.5000 0.3333
vt 0.2500 0.0000
vt 0.5000 0.3333
vt 0.5000 0.3333
vt 0.2500 1.0000
vn 0.6426 0.0000 0.7662
vn 0.7662 0.0000 -0.6426
vn -0.6426 0.0000 -0.7662
vn -0.7662 0.0000 0.6426
vn 0.0000 1.0000 -0.0000
vn 0.0000 -1.0000 0.0000
usemtl None
s off
f 4/1/1 1/2/1 2/3/1
f 8/4/2 3/5/2 4/6/2
f 6/7/3 7/8/3 8/4/3
f 2/9/4 5/10/4 6/11/4
f 3/12/5 5/13/5 1/14/5
f 8/15/6 2/16/6 6/17/6
f 4/1/1 3/18/1 1/2/1
f 8/4/2 7/8/2 3/5/2
f 6/7/3 5/19/3 7/8/3
f 2/9/4 1/20/4 5/10/4
f 3/12/5 7/21/5 5/13/5
f 8/15/6 4/22/6 2/16/6
