# Blender v2.77 (sub 0) OBJ File: 'pb2_copy.blend'
# www.blender.org
mtllib t_bumper.mtl
o Circle.005
v 0.000000 0.000000 -0.618982
v -0.120757 0.000000 -0.607088
v -0.236874 0.000000 -0.571864
v -0.343888 0.000000 -0.514664
v -0.437686 0.000000 -0.437686
v -0.514665 0.000000 -0.343888
v -0.571864 0.000000 -0.236874
v -0.607088 0.000000 -0.120757
v -0.618982 0.000000 -0.000000
v -0.607088 0.000000 0.120757
v -0.571865 0.000000 0.236874
v -0.514665 0.000000 0.343888
v -0.437686 0.000000 0.437686
v -0.343888 0.000000 0.514665
v -0.236874 0.000000 0.571865
v -0.120757 0.000000 0.607088
v 0.000000 0.000000 0.618982
v 0.120758 0.000000 0.607088
v 0.236874 0.000000 0.571864
v 0.343888 0.000000 0.514664
v 0.437686 0.000000 0.437686
v 0.514665 0.000000 0.343887
v 0.571865 0.000000 0.236874
v 0.607088 0.000000 0.120757
v 0.618982 0.000000 -0.000001
v 0.607088 0.000000 -0.120758
v 0.571864 0.000000 -0.236875
v 0.514664 0.000000 -0.343888
v 0.437686 0.000000 -0.437687
v 0.343887 0.000000 -0.514665
v 0.236873 0.000000 -0.571865
v 0.120756 0.000000 -0.607088
v -0.000000 0.132976 0.012522
v 0.002443 0.132976 0.012282
v 0.004792 0.132976 0.011569
v 0.006957 0.132976 0.010412
v 0.008855 0.132976 0.008855
v 0.010412 0.132976 0.006957
v 0.011569 0.132976 0.004792
v 0.012282 0.132976 0.002443
v 0.012523 0.132976 -0.000000
v 0.012282 0.132976 -0.002443
v 0.011569 0.132976 -0.004792
v 0.010412 0.132976 -0.006957
v 0.008855 0.132976 -0.008855
v 0.006957 0.132976 -0.010412
v 0.004792 0.132976 -0.011569
v 0.002443 0.132976 -0.012282
v -0.000000 0.132976 -0.012523
v -0.002443 0.132976 -0.012282
v -0.004792 0.132976 -0.011569
v -0.006957 0.132976 -0.010412
v -0.008855 0.132976 -0.008855
v -0.010412 0.132976 -0.006957
v -0.011569 0.132976 -0.004792
v -0.012282 0.132976 -0.002443
v -0.012523 0.132976 -0.000000
v -0.012282 0.132976 0.002443
v -0.011569 0.132976 0.004792
v -0.010412 0.132976 0.006957
v -0.008855 0.132976 0.008855
v -0.006957 0.132976 0.010412
v -0.004792 0.132976 0.011569
v -0.002443 0.132976 0.012282
vt 0.6458 0.0192
vt 0.4952 0.5090
vt 0.4970 0.5097
vt 0.5492 1.0000
vt 0.5010 0.4899
vt 0.4990 0.4899
vt 0.7368 0.0569
vt 0.4936 0.5079
vt 0.4508 1.0000
vt 0.5030 0.4903
vt 0.8187 0.1116
vt 0.4921 0.5064
vt 0.3542 0.9808
vt 0.5048 0.4910
vt 0.8884 0.1813
vt 0.4910 0.5048
vt 0.2632 0.9431
vt 0.5064 0.4921
vt 0.9431 0.2632
vt 0.4903 0.5030
vt 0.0000 0.4508
vt 0.5097 0.5030
vt 0.5101 0.5010
vt 0.1813 0.8884
vt 0.5079 0.4936
vt 0.9808 0.3542
vt 0.4899 0.5010
vt 0.0192 0.3542
vt 0.5090 0.5048
vt 0.1116 0.8187
vt 0.5090 0.4952
vt 1.0000 0.4508
vt 0.4899 0.4990
vt 0.0569 0.2632
vt 0.5079 0.5064
vt 0.0569 0.7368
vt 0.5097 0.4970
vt 1.0000 0.5492
vt 0.4903 0.4970
vt 0.1116 0.1813
vt 0.5064 0.5079
vt 0.0192 0.6458
vt 0.5101 0.4990
vt 0.9808 0.6458
vt 0.4910 0.4952
vt 0.1813 0.1116
vt 0.5048 0.5090
vt 0.0000 0.5492
vt 0.9431 0.7368
vt 0.4921 0.4936
vt 0.2632 0.0569
vt 0.5030 0.5097
vt 0.8884 0.8187
vt 0.4936 0.4921
vt 0.3542 0.0192
vt 0.5010 0.5101
vt 0.8187 0.8884
vt 0.4952 0.4910
vt 0.4508 0.0000
vt 0.4990 0.5101
vt 0.7368 0.9431
vt 0.4970 0.4903
vt 0.5492 0.0000
vt 0.6458 0.9808
vn 0.1981 -0.9783 -0.0601
vn -0.2060 -0.9783 -0.0203
vn 0.1826 -0.9783 -0.0976
vn -0.2060 -0.9783 0.0203
vn 0.1600 -0.9783 -0.1313
vn -0.1981 -0.9783 0.0601
vn 0.1313 -0.9783 -0.1600
vn -0.1826 -0.9783 0.0976
vn 0.0976 -0.9783 -0.1826
vn 0.0203 -0.9783 0.2060
vn -0.1600 -0.9783 0.1313
vn 0.0601 -0.9783 -0.1981
vn 0.0601 -0.9783 0.1981
vn -0.1313 -0.9783 0.1600
vn 0.0203 -0.9783 -0.2060
vn 0.0976 -0.9783 0.1826
vn -0.0976 -0.9783 0.1826
vn -0.0203 -0.9783 -0.2060
vn 0.1313 -0.9783 0.1600
vn -0.0601 -0.9783 0.1981
vn -0.0601 -0.9783 -0.1981
vn 0.1600 -0.9783 0.1313
vn -0.0203 -0.9783 0.2060
vn -0.0976 -0.9783 -0.1826
vn 0.1826 -0.9783 0.0976
vn -0.1313 -0.9783 -0.1600
vn 0.1981 -0.9783 0.0601
vn -0.1600 -0.9783 -0.1313
vn 0.2060 -0.9783 0.0203
vn -0.1826 -0.9783 -0.0976
vn 0.2060 -0.9783 -0.0203
vn -0.1981 -0.9783 -0.0601
vn -0.1981 0.9783 0.0601
vn 0.2060 0.9783 0.0203
vn -0.1826 0.9783 0.0976
vn 0.2060 0.9783 -0.0203
vn -0.1600 0.9783 0.1313
vn 0.1981 0.9783 -0.0601
vn -0.1313 0.9783 0.1600
vn 0.1826 0.9783 -0.0976
vn -0.0976 0.9783 0.1826
vn -0.0203 0.9783 -0.2060
vn 0.1600 0.9783 -0.1313
vn -0.0601 0.9783 0.1981
vn -0.0601 0.9783 -0.1981
vn 0.1313 0.9783 -0.1600
vn -0.0203 0.9783 0.2060
vn -0.0976 0.9783 -0.1826
vn 0.0976 0.9783 -0.1826
vn 0.0203 0.9783 0.2060
vn -0.1313 0.9783 -0.1600
vn 0.0601 0.9783 -0.1981
vn 0.0601 0.9783 0.1981
vn -0.1600 0.9783 -0.1313
vn 0.0203 0.9783 -0.2060
vn 0.0976 0.9783 0.1826
vn -0.1826 0.9783 -0.0976
vn 0.1313 0.9783 0.1600
vn -0.1981 0.9783 -0.0601
vn 0.1600 0.9783 0.1313
vn -0.2060 0.9783 -0.0203
vn 0.1826 0.9783 0.0976
vn -0.2060 0.9783 0.0203
vn 0.1981 0.9783 0.0601
usemtl Material.005
s off
f 10/1/1 43/2/1 42/3/1
f 24/4/2 57/5/2 56/6/2
f 11/7/3 44/8/3 43/2/3
f 25/9/4 58/10/4 57/5/4
f 12/11/5 45/12/5 44/8/5
f 26/13/6 59/14/6 58/10/6
f 13/15/7 46/16/7 45/12/7
f 27/17/8 60/18/8 59/14/8
f 14/19/9 47/20/9 46/16/9
f 1/21/10 34/22/10 33/23/10
f 28/24/11 61/25/11 60/18/11
f 15/26/12 48/27/12 47/20/12
f 2/28/13 35/29/13 34/22/13
f 29/30/14 62/31/14 61/25/14
f 16/32/15 49/33/15 48/27/15
f 3/34/16 36/35/16 35/29/16
f 30/36/17 63/37/17 62/31/17
f 17/38/18 50/39/18 49/33/18
f 4/40/19 37/41/19 36/35/19
f 31/42/20 64/43/20 63/37/20
f 18/44/21 51/45/21 50/39/21
f 5/46/22 38/47/22 37/41/22
f 32/48/23 33/23/23 64/43/23
f 19/49/24 52/50/24 51/45/24
f 6/51/25 39/52/25 38/47/25
f 20/53/26 53/54/26 52/50/26
f 7/55/27 40/56/27 39/52/27
f 21/57/28 54/58/28 53/54/28
f 8/59/29 41/60/29 40/56/29
f 22/61/30 55/62/30 54/58/30
f 9/63/31 42/3/31 41/60/31
f 23/64/32 56/6/32 55/62/32
f 10/1/33 11/7/33 43/2/33
f 24/4/34 25/9/34 57/5/34
f 11/7/35 12/11/35 44/8/35
f 25/9/36 26/13/36 58/10/36
f 12/11/37 13/15/37 45/12/37
f 26/13/38 27/17/38 59/14/38
f 13/15/39 14/19/39 46/16/39
f 27/17/40 28/24/40 60/18/40
f 14/19/41 15/26/41 47/20/41
f 1/21/42 2/28/42 34/22/42
f 28/24/43 29/30/43 61/25/43
f 15/26/44 16/32/44 48/27/44
f 2/28/45 3/34/45 35/29/45
f 29/30/46 30/36/46 62/31/46
f 16/32/47 17/38/47 49/33/47
f 3/34/48 4/40/48 36/35/48
f 30/36/49 31/42/49 63/37/49
f 17/38/50 18/44/50 50/39/50
f 4/40/51 5/46/51 37/41/51
f 31/42/52 32/48/52 64/43/52
f 18/44/53 19/49/53 51/45/53
f 5/46/54 6/51/54 38/47/54
f 32/48/55 1/21/55 33/23/55
f 19/49/56 20/53/56 52/50/56
f 6/51/57 7/55/57 39/52/57
f 20/53/58 21/57/58 53/54/58
f 7/55/59 8/59/59 40/56/59
f 21/57/60 22/61/60 54/58/60
f 8/59/61 9/63/61 41/60/61
f 22/61/62 23/64/62 55/62/62
f 9/63/63 10/1/63 42/3/63
f 23/64/64 24/4/64 56/6/64
