# Blender v2.76 (sub 0) OBJ File: ''
# www.blender.org
mtllib jupiterRing.mtl
o Circle
v 0.000000 0.000000 -3.125608
v -0.609776 0.000000 -3.065551
v -1.196119 0.000000 -2.887686
v -1.736495 0.000000 -2.598848
v -2.210139 0.000000 -2.210139
v -2.598849 0.000000 -1.736495
v -2.887686 0.000000 -1.196119
v -3.065551 0.000000 -0.609776
v -3.125608 0.000000 -0.000000
v -3.065551 0.000000 0.609776
v -2.887686 0.000000 1.196118
v -2.598849 0.000000 1.736495
v -2.210139 0.000000 2.210139
v -1.736495 0.000000 2.598849
v -1.196118 0.000000 2.887686
v -0.609775 0.000000 3.065551
v 0.000001 0.000000 3.125608
v 0.609777 0.000000 3.065551
v 1.196120 0.000000 2.887685
v 1.736497 0.000000 2.598847
v 2.210140 0.000000 2.210138
v 2.598850 0.000000 1.736493
v 2.887687 0.000000 1.196116
v 3.065551 0.000000 0.609773
v 3.125608 0.000000 -0.000003
v 3.065550 0.000000 -0.609779
v 2.887684 0.000000 -1.196122
v 2.598846 0.000000 -1.736498
v 2.210136 0.000000 -2.210142
v 1.736492 0.000000 -2.598851
v 1.196114 0.000000 -2.887687
v 0.609771 0.000000 -3.065552
v 0.000000 0.000000 -3.125608
v -0.609776 0.000000 -3.065551
v -1.196119 0.000000 -2.887686
v -1.736495 0.000000 -2.598848
v -2.210139 0.000000 -2.210139
v -2.598849 0.000000 -1.736495
v -2.887686 0.000000 -1.196119
v -3.065551 0.000000 -0.609776
v -3.125608 0.000000 -0.000000
v -3.065551 0.000000 0.609776
v -2.887686 0.000000 1.196118
v -2.598849 0.000000 1.736495
v -2.210139 0.000000 2.210139
v -1.736495 0.000000 2.598849
v -1.196118 0.000000 2.887686
v -0.609775 0.000000 3.065551
v 0.000001 0.000000 3.125608
v 0.609777 0.000000 3.065551
v 1.196120 0.000000 2.887685
v 1.736497 0.000000 2.598847
v 2.210140 0.000000 2.210138
v 2.598850 0.000000 1.736493
v 2.887687 0.000000 1.196116
v 3.065551 0.000000 0.609773
v 3.125608 0.000000 -0.000003
v 3.065550 0.000000 -0.609779
v 2.887684 0.000000 -1.196122
v 2.598846 0.000000 -1.736498
v 2.210136 0.000000 -2.210142
v 1.736492 0.000000 -2.598851
v 1.196114 0.000000 -2.887687
v 0.609771 0.000000 -3.065552
v 0.000000 0.000000 -3.287217
v -0.641304 0.000000 -3.224054
v -1.257964 0.000000 -3.036993
v -1.826280 0.000000 -2.733221
v -2.324414 0.000000 -2.324414
v -2.733221 0.000000 -1.826280
v -3.036993 0.000000 -1.257964
v -3.224054 0.000000 -0.641304
v -3.287217 0.000000 -0.000000
v -3.224054 0.000000 0.641304
v -3.036993 0.000000 1.257963
v -2.733221 0.000000 1.826280
v -2.324414 0.000000 2.324414
v -1.826280 0.000000 2.733222
v -1.257963 0.000000 3.036993
v -0.641303 0.000000 3.224055
v 0.000001 0.000000 3.287217
v 0.641306 0.000000 3.224054
v 1.257965 0.000000 3.036992
v 1.826282 0.000000 2.733220
v 2.324415 0.000000 2.324412
v 2.733223 0.000000 1.826278
v 3.036994 0.000000 1.257961
v 3.224055 0.000000 0.641302
v 3.287217 0.000000 -0.000003
v 3.224054 0.000000 -0.641308
v 3.036991 0.000000 -1.257967
v 2.733219 0.000000 -1.826283
v 2.324411 0.000000 -2.324417
v 1.826276 0.000000 -2.733224
v 1.257959 0.000000 -3.036995
v 0.641299 0.000000 -3.224055
vn 0.000000 0.000000 1.000000
vn 0.000000 -1.000000 0.000000
usemtl Material.002
s off
f 26//1 27//1 59//1
f 13//1 14//1 46//1
f 27//1 28//1 60//1
f 14//1 15//1 47//1
f 1//1 2//1 34//1
f 28//1 29//1 61//1
f 15//1 16//1 48//1
f 2//1 3//1 35//1
f 29//1 30//1 62//1
f 16//1 17//1 49//1
f 3//1 4//1 36//1
f 30//1 31//1 63//1
f 17//1 18//1 50//1
f 4//1 5//1 37//1
f 31//1 32//1 64//1
f 18//1 19//1 51//1
f 5//1 6//1 38//1
f 32//1 1//1 33//1
f 19//1 20//1 52//1
f 6//1 7//1 39//1
f 20//1 21//1 53//1
f 7//1 8//1 40//1
f 21//1 22//1 54//1
f 8//1 9//1 41//1
f 22//1 23//1 55//1
f 9//1 10//1 42//1
f 23//1 24//1 56//1
f 10//1 11//1 43//1
f 24//1 25//1 57//1
f 11//1 12//1 44//1
f 25//1 26//1 58//1
f 12//1 13//1 45//1
f 53//2 54//2 86//2
f 41//2 73//2 72//2
f 55//2 87//2 86//2
f 42//2 74//2 73//2
f 56//2 88//2 87//2
f 43//2 75//2 74//2
f 56//2 57//2 89//2
f 44//2 76//2 75//2
f 57//2 58//2 90//2
f 45//2 77//2 76//2
f 59//2 91//2 90//2
f 46//2 78//2 77//2
f 60//2 92//2 91//2
f 47//2 79//2 78//2
f 33//2 34//2 66//2
f 61//2 93//2 92//2
f 48//2 80//2 79//2
f 35//2 67//2 66//2
f 62//2 94//2 93//2
f 49//2 81//2 80//2
f 36//2 68//2 67//2
f 62//2 63//2 95//2
f 50//2 82//2 81//2
f 36//2 37//2 69//2
f 63//2 64//2 96//2
f 51//2 83//2 82//2
f 38//2 70//2 69//2
f 33//2 65//2 96//2
f 52//2 84//2 83//2
f 39//2 71//2 70//2
f 53//2 85//2 84//2
f 40//2 72//2 71//2
f 58//1 26//1 59//1
f 45//1 13//1 46//1
f 59//1 27//1 60//1
f 46//1 14//1 47//1
f 33//1 1//1 34//1
f 60//1 28//1 61//1
f 47//1 15//1 48//1
f 34//1 2//1 35//1
f 61//1 29//1 62//1
f 48//1 16//1 49//1
f 35//1 3//1 36//1
f 62//1 30//1 63//1
f 49//1 17//1 50//1
f 36//1 4//1 37//1
f 63//1 31//1 64//1
f 50//1 18//1 51//1
f 37//1 5//1 38//1
f 64//1 32//1 33//1
f 51//1 19//1 52//1
f 38//1 6//1 39//1
f 52//1 20//1 53//1
f 39//1 7//1 40//1
f 53//1 21//1 54//1
f 40//1 8//1 41//1
f 54//1 22//1 55//1
f 41//1 9//1 42//1
f 55//1 23//1 56//1
f 42//1 10//1 43//1
f 56//1 24//1 57//1
f 43//1 11//1 44//1
f 57//1 25//1 58//1
f 44//1 12//1 45//1
f 85//2 53//2 86//2
f 40//2 41//2 72//2
f 54//2 55//2 86//2
f 41//2 42//2 73//2
f 55//2 56//2 87//2
f 42//2 43//2 74//2
f 88//2 56//2 89//2
f 43//2 44//2 75//2
f 89//2 57//2 90//2
f 44//2 45//2 76//2
f 58//2 59//2 90//2
f 45//2 46//2 77//2
f 59//2 60//2 91//2
f 46//2 47//2 78//2
f 65//2 33//2 66//2
f 60//2 61//2 92//2
f 47//2 48//2 79//2
f 34//2 35//2 66//2
f 61//2 62//2 93//2
f 48//2 49//2 80//2
f 35//2 36//2 67//2
f 94//2 62//2 95//2
f 49//2 50//2 81//2
f 68//2 36//2 69//2
f 95//2 63//2 96//2
f 50//2 51//2 82//2
f 37//2 38//2 69//2
f 64//2 33//2 96//2
f 51//2 52//2 83//2
f 38//2 39//2 70//2
f 52//2 53//2 84//2
f 39//2 40//2 71//2
