# Blender v2.76 (sub 0) OBJ File: ''
# www.blender.org
mtllib neptuneRing.mtl
o Circle_Circle.001
v 0.000000 0.000000 -3.022901
v -0.589739 0.000000 -2.964817
v -1.156814 0.000000 -2.792797
v -1.679434 0.000000 -2.513451
v -2.137514 0.000000 -2.137514
v -2.513451 0.000000 -1.679434
v -2.792797 0.000000 -1.156814
v -2.964817 0.000000 -0.589739
v -3.022901 0.000000 -0.000000
v -2.964817 0.000000 0.589738
v -2.792797 0.000000 1.156814
v -2.513451 0.000000 1.679434
v -2.137514 0.000000 2.137514
v -1.679434 0.000000 2.513451
v -1.156814 0.000000 2.792797
v -0.589738 0.000000 2.964817
v 0.000001 0.000000 3.022901
v 0.589740 0.000000 2.964817
v 1.156816 0.000000 2.792796
v 1.679435 0.000000 2.513450
v 2.137515 0.000000 2.137513
v 2.513452 0.000000 1.679432
v 2.792798 0.000000 1.156812
v 2.964818 0.000000 0.589736
v 3.022901 0.000000 -0.000003
v 2.964817 0.000000 -0.589742
v 2.792795 0.000000 -1.156817
v 2.513448 0.000000 -1.679437
v 2.137511 0.000000 -2.137517
v 1.679431 0.000000 -2.513453
v 1.156810 0.000000 -2.792798
v 0.589734 0.000000 -2.964818
v 0.000000 0.000000 -3.874492
v -0.755876 0.000000 -3.800045
v -1.482704 0.000000 -3.579564
v -2.152553 0.000000 -3.221522
v -2.739680 0.000000 -2.739680
v -3.221523 0.000000 -2.152552
v -3.579564 0.000000 -1.482704
v -3.800045 0.000000 -0.755876
v -3.874493 0.000000 -0.000000
v -3.800045 0.000000 0.755876
v -3.579565 0.000000 1.482704
v -3.221523 0.000000 2.152553
v -2.739680 0.000000 2.739680
v -2.152552 0.000000 3.221523
v -1.482703 0.000000 3.579565
v -0.755875 0.000000 3.800046
v 0.000001 0.000000 3.874493
v 0.755878 0.000000 3.800045
v 1.482706 0.000000 3.579564
v 2.152555 0.000000 3.221522
v 2.739682 0.000000 2.739679
v 3.221524 0.000000 2.152551
v 3.579566 0.000000 1.482701
v 3.800046 0.000000 0.755873
v 3.874493 0.000000 -0.000003
v 3.800045 0.000000 -0.755880
v 3.579563 0.000000 -1.482708
v 3.221520 0.000000 -2.152557
v 2.739676 0.000000 -2.739683
v 2.152549 0.000000 -3.221525
v 1.482699 0.000000 -3.579566
v 0.755870 0.000000 -3.800046
vt 1.000000 0.000000
vt 1.000000 1.000000
vt 0.000000 1.000000
vt 0.000000 0.000000
vn 0.000000 -1.000000 0.000000
usemtl Material.003
s off
f 7/1/1 39/2/1 38/3/1
f 21/1/1 53/2/1 52/3/1
f 8/1/1 40/2/1 39/3/1
f 21/4/1 22/1/1 54/2/1
f 9/1/1 41/2/1 40/3/1
f 23/1/1 55/2/1 54/3/1
f 10/1/1 42/2/1 41/3/1
f 23/4/1 24/1/1 56/2/1
f 11/1/1 43/2/1 42/3/1
f 24/4/1 25/1/1 57/2/1
f 12/1/1 44/2/1 43/3/1
f 25/4/1 26/1/1 58/2/1
f 13/1/1 45/2/1 44/3/1
f 26/4/1 27/1/1 59/2/1
f 14/1/1 46/2/1 45/3/1
f 28/1/1 60/2/1 59/3/1
f 15/1/1 47/2/1 46/3/1
f 2/1/1 34/2/1 33/3/1
f 28/4/1 29/1/1 61/2/1
f 16/1/1 48/2/1 47/3/1
f 3/1/1 35/2/1 34/3/1
f 29/4/1 30/1/1 62/2/1
f 17/1/1 49/2/1 48/3/1
f 4/1/1 36/2/1 35/3/1
f 30/4/1 31/1/1 63/2/1
f 18/1/1 50/2/1 49/3/1
f 4/4/1 5/1/1 37/2/1
f 31/4/1 32/1/1 64/2/1
f 18/4/1 19/1/1 51/2/1
f 6/1/1 38/2/1 37/3/1
f 32/4/1 1/1/1 33/2/1
f 20/1/1 52/2/1 51/3/1
f 6/4/1 7/1/1 38/3/1
f 20/4/1 21/1/1 52/3/1
f 7/4/1 8/1/1 39/3/1
f 53/3/1 21/4/1 54/2/1
f 8/4/1 9/1/1 40/3/1
f 22/4/1 23/1/1 54/3/1
f 9/4/1 10/1/1 41/3/1
f 55/3/1 23/4/1 56/2/1
f 10/4/1 11/1/1 42/3/1
f 56/3/1 24/4/1 57/2/1
f 11/4/1 12/1/1 43/3/1
f 57/3/1 25/4/1 58/2/1
f 12/4/1 13/1/1 44/3/1
f 58/3/1 26/4/1 59/2/1
f 13/4/1 14/1/1 45/3/1
f 27/4/1 28/1/1 59/3/1
f 14/4/1 15/1/1 46/3/1
f 1/4/1 2/1/1 33/3/1
f 60/3/1 28/4/1 61/2/1
f 15/4/1 16/1/1 47/3/1
f 2/4/1 3/1/1 34/3/1
f 61/3/1 29/4/1 62/2/1
f 16/4/1 17/1/1 48/3/1
f 3/4/1 4/1/1 35/3/1
f 62/3/1 30/4/1 63/2/1
f 17/4/1 18/1/1 49/3/1
f 36/3/1 4/4/1 37/2/1
f 63/3/1 31/4/1 64/2/1
f 50/3/1 18/4/1 51/2/1
f 5/4/1 6/1/1 37/3/1
f 64/3/1 32/4/1 33/2/1
f 19/4/1 20/1/1 51/3/1
