# Blender v2.77 (sub 0) OBJ File: 'Cube.blend'
# www.blender.org
mtllib Cube.mtl
o Cube_Cube.001
v -1.000000 -1.000000 1.000000
v -1.000000 1.000000 1.000000
v -1.000000 -1.000000 -1.000000
v -1.000000 1.000000 -1.000000
v 1.000000 -1.000000 1.000000
v 1.000000 1.000000 1.000000
v 1.000000 -1.000000 -1.000000
v 1.000000 1.000000 -1.000000
vt 0.0023 0.4997
vt 0.3341 0.7491
vt 0.0023 0.7491
vt 0.6659 0.2502
vt 0.3341 0.4997
vt 0.3341 0.2502
vt 0.9977 0.7491
vt 0.6659 0.4997
vt 0.9977 0.4997
vt 0.3341 0.9986
vt 0.6659 0.7491
vt 0.6659 0.9986
vt 0.3341 0.0008
vt 0.6659 0.0008
vn -1.0000 0.0000 0.0000
vn 0.0000 0.0000 -1.0000
vn 1.0000 0.0000 0.0000
vn 0.0000 0.0000 1.0000
vn 0.0000 -1.0000 0.0000
vn 0.0000 1.0000 0.0000
usemtl None
s off
f 4/1/1 1/2/1 2/3/1
f 8/4/2 3/5/2 4/6/2
f 6/7/3 7/8/3 8/9/3
f 2/10/4 5/11/4 6/12/4
f 3/5/5 5/11/5 1/2/5
f 8/4/6 2/13/6 6/14/6
f 4/1/1 3/5/1 1/2/1
f 8/4/2 7/8/2 3/5/2
f 6/7/3 5/11/3 7/8/3
f 2/10/4 1/2/4 5/11/4
f 3/5/5 7/8/5 5/11/5
f 8/4/6 4/6/6 2/13/6
