# Blender v2.78 (sub 0) OBJ File: 'skyBox.blend'
# www.blender.org
mtllib skyBox.mtl
o Cube_Cube.001
v -1.000000 1.000000 -1.000000
v -1.000000 -1.000000 -1.000000
v -1.000000 1.000000 1.000000
v -1.000000 -1.000000 1.000000
v 1.000000 1.000000 -1.000000
v 1.000000 -1.000000 -1.000000
v 1.000000 1.000000 1.000000
v 1.000000 -1.000000 1.000000
vt 0.7500 0.6667
vt 0.5000 0.3333
vt 0.5000 0.6667
vt 1.0000 0.6667
vt 0.7500 0.3333
vt 0.2500 0.6667
vt 0.0000 0.3333
vt 0.0000 0.6667
vt 0.2500 0.3333
vt 0.2500 1.0000
vt 0.5000 1.0000
vt 0.5000 0.0000
vt 0.2500 0.0000
vt 1.0000 0.3333
vn 1.0000 0.0000 0.0000
vn 0.0000 0.0000 -1.0000
vn -1.0000 0.0000 0.0000
vn 0.0000 0.0000 1.0000
vn 0.0000 -1.0000 0.0000
vn 0.0000 1.0000 0.0000
usemtl Material.001
s off
f 3/1/1 2/2/1 1/3/1
f 7/4/2 4/5/2 3/1/2
f 5/6/3 8/7/3 7/8/3
f 1/3/4 6/9/4 5/6/4
f 1/3/5 7/10/5 3/11/5
f 6/9/6 4/12/6 8/13/6
f 3/1/1 4/5/1 2/2/1
f 7/4/2 8/14/2 4/5/2
f 5/6/3 6/9/3 8/7/3
f 1/3/4 2/2/4 6/9/4
f 1/3/5 5/6/5 7/10/5
f 6/9/6 2/2/6 4/12/6
