# Blender v2.78 (sub 0) OBJ File: ''
# www.blender.org
mtllib speed7.mtl
o Cube.007_Cube.008
v -0.937766 0.212343 0.032790
v -1.783736 -0.218701 0.032790
v -1.783736 -0.218701 -0.032790
v -0.937766 0.212342 -0.032790
v -1.359508 -0.802601 0.032790
v -0.714736 -0.474073 0.032790
v -0.714736 -0.474073 -0.032790
v -1.359508 -0.802601 -0.032790
vt 0.3810 0.3436
vt 0.5025 0.2745
vt 0.4632 0.3801
vt 0.0694 0.7895
vt 0.0999 0.6143
vt 0.1393 0.7200
vt 0.7422 0.4237
vt 0.7500 0.5293
vt 0.7422 0.5293
vt 0.7422 0.2173
vt 0.7343 0.0914
vt 0.7422 0.0914
vt 0.4326 0.2050
vt 0.0178 0.6509
vt 0.7500 0.4237
vt 0.7343 0.2173
vn 0.0000 0.0000 1.0000
vn 0.0000 -0.0000 -1.0000
vn -0.4540 0.8910 0.0000
vn 0.4540 -0.8910 0.0000
usemtl None
s off
f 4/1/1 8/2/1 7/3/1
f 2/4/2 6/5/2 5/6/2
f 6/7/3 8/8/3 5/9/3
f 2/10/4 4/11/4 1/12/4
f 4/1/1 3/13/1 8/2/1
f 2/4/2 1/14/2 6/5/2
f 6/7/3 7/15/3 8/8/3
f 2/10/4 3/16/4 4/11/4
