# Blender v2.78 (sub 0) OBJ File: ''
# www.blender.org
mtllib speed2.mtl
o Cube.002_Cube.003
v 2.886146 -1.736038 0.032790
v 2.455102 -0.890067 0.032790
v 2.455102 -0.890067 -0.032790
v 2.886146 -1.736038 -0.032790
v 1.871202 -1.314295 0.032790
v 2.199730 -1.959067 0.032790
v 2.199730 -1.959067 -0.032790
v 1.871202 -1.314295 -0.032790
vt 0.6142 0.9701
vt 0.5637 0.8038
vt 0.6409 0.8576
vt 0.2510 0.0243
vt 0.2005 0.1906
vt 0.1497 0.0950
vt 0.7343 0.7647
vt 0.7265 0.8344
vt 0.7265 0.7647
vt 0.7343 0.3652
vt 0.7265 0.5208
vt 0.7265 0.3652
vt 0.5130 0.8995
vt 0.2777 0.1368
vt 0.7343 0.8344
vt 0.7343 0.5208
vn -0.0000 0.0000 1.0000
vn 0.0000 -0.0000 -1.0000
vn 0.8910 0.4540 0.0000
vn -0.8910 -0.4540 0.0000
usemtl None
s off
f 4/1/1 8/2/1 7/3/1
f 1/4/2 5/5/2 2/6/2
f 7/7/3 5/8/3 6/9/3
f 3/10/4 1/11/4 2/12/4
f 4/1/1 3/13/1 8/2/1
f 1/4/2 6/14/2 5/5/2
f 7/7/3 8/15/3 5/8/3
f 3/10/4 4/16/4 1/11/4
