# Blender v2.78 (sub 0) OBJ File: ''
# www.blender.org
mtllib speed10.mtl
o Cube.010_Cube.011
v -2.312933 -2.673803 0.032790
v -2.312933 -2.673803 -0.032790
v -3.034673 -2.673803 0.032790
v -3.034673 -2.673803 -0.032790
v -2.886146 -1.736038 0.032790
v -2.886146 -1.736038 -0.032790
v -2.199730 -1.959067 0.032790
v -2.199730 -1.959067 -0.032790
vt 0.7422 0.7870
vt 0.7343 0.9053
vt 0.7343 0.7870
vt 0.7265 0.9303
vt 0.7343 0.8344
vt 0.7343 0.9303
vt 0.6142 0.0243
vt 0.7265 0.1183
vt 0.6409 0.1368
vt 0.2510 0.9701
vt 0.3632 0.8762
vt 0.3632 0.9945
vt 0.7422 0.6688
vt 0.7343 0.5208
vt 0.7422 0.5208
vt 0.7422 0.9053
vt 0.7265 0.8344
vt 0.7265 0.0000
vt 0.2777 0.8576
vt 0.7343 0.6688
vn -0.0000 1.0000 0.0000
vn -0.9877 0.1564 0.0000
vn 0.0000 0.0000 1.0000
vn 0.0000 -0.0000 -1.0000
vn 0.9877 -0.1564 0.0000
usemtl None
s off
f 2/1/1 3/2/1 1/3/1
f 8/4/2 1/5/2 7/6/2
f 6/7/3 2/8/3 8/9/3
f 5/10/4 1/11/4 3/12/4
f 3/13/5 6/14/5 5/15/5
f 2/1/1 4/16/1 3/2/1
f 8/4/2 2/17/2 1/5/2
f 6/7/3 4/18/3 2/8/3
f 5/10/4 7/19/4 1/11/4
f 3/13/5 4/20/5 6/14/5
