# Blender v2.78 (sub 0) OBJ File: ''
# www.blender.org
mtllib speed6.mtl
o Cube.006_Cube.007
v 0.000000 0.360870 0.032790
v -0.937766 0.212343 0.032790
v -0.937766 0.212342 -0.032790
v 0.000000 0.360870 -0.032790
v -0.714736 -0.474073 0.032790
v 0.000000 -0.360870 0.032790
v 0.000000 -0.360870 -0.032790
v -0.714736 -0.474073 -0.032790
vt 0.3810 0.3436
vt 0.4496 0.4972
vt 0.3632 0.4972
vt 0.0000 0.4972
vt 0.0999 0.6143
vt 0.0178 0.6509
vt 0.7422 0.3066
vt 0.7500 0.4237
vt 0.7422 0.4237
vt 0.7422 0.0914
vt 0.7343 0.0000
vt 0.7422 0.0000
vt 0.4632 0.3801
vt 0.0864 0.4972
vt 0.7500 0.3066
vt 0.7343 0.0914
vn 0.0000 0.0000 1.0000
vn 0.0000 -0.0000 -1.0000
vn -0.1564 0.9877 0.0000
vn 0.1564 -0.9877 0.0000
usemtl None
s off
f 3/1/1 7/2/1 4/3/1
f 1/4/2 5/5/2 2/6/2
f 6/7/3 8/8/3 5/9/3
f 2/10/4 4/11/4 1/12/4
f 3/1/1 8/13/1 7/2/1
f 1/4/2 6/14/2 5/5/2
f 6/7/3 7/15/3 8/8/3
f 2/10/4 3/16/4 4/11/4
