# Blender v2.77 (sub 0) OBJ File: 'Cube3.blend'
# www.blender.org
mtllib terrainCube.mtl
o Cube
v -0.500000 -0.500000 0.500000
v -0.500000 0.500000 0.500000
v -0.500000 -0.500000 -0.500000
v -0.500000 0.500000 -0.500000
v 0.500000 -0.500000 0.500000
v 0.500000 0.500000 0.500000
v 0.500000 -0.500000 -0.500000
v 0.500000 0.500000 -0.500000
vt 0.5000 0.0001
vt 0.2501 0.3334
vt 0.2501 0.0001
vt 0.7500 0.6666
vt 0.5000 0.3334
vt 0.7500 0.3334
vt 0.2501 0.9999
vt 0.5000 0.6666
vt 0.5000 0.9999
vt 0.0001 0.3334
vt 0.2501 0.6666
vt 0.0001 0.6666
vt 0.9999 0.3334
vt 0.9999 0.6666
vn -1.0000 0.0000 0.0000
vn 0.0000 0.0000 -1.0000
vn 1.0000 0.0000 0.0000
vn 0.0000 0.0000 1.0000
vn 0.0000 -1.0000 0.0000
vn 0.0000 1.0000 0.0000
usemtl Material
s off
f 4/1/1 1/2/1 2/3/1
f 8/4/2 3/5/2 4/6/2
f 6/7/3 7/8/3 8/9/3
f 2/10/4 5/11/4 6/12/4
f 3/5/5 5/11/5 1/2/5
f 8/4/6 2/13/6 6/14/6
f 4/1/1 3/5/1 1/2/1
f 8/4/2 7/8/2 3/5/2
f 6/7/3 5/11/3 7/8/3
f 2/10/4 1/2/4 5/11/4
f 3/5/5 7/8/5 5/11/5
f 8/4/6 4/6/6 2/13/6
