# Blender v2.77 (sub 0) OBJ File: 'tunnel.blend'
# www.blender.org
mtllib tunnel.mtl
o Cylinder
v 0.494687 -0.006468 -0.495000
v 0.495000 -0.000094 -0.495000
v 0.495000 -0.000094 0.495000
v 0.494687 -0.006468 0.495000
v 0.494687 -0.006468 0.495000
v 0.445500 -0.000094 -0.495000
v 0.492616 0.048426 -0.495000
v 0.492616 0.048426 0.495000
v 0.485489 0.096477 0.495000
v 0.473685 0.143598 0.495000
v 0.457320 0.189336 0.495000
v 0.445500 -0.000094 0.495000
v 0.445187 -0.006468 0.495000
v 0.494687 -0.006468 -0.495000
v 0.445187 -0.006468 0.495000
v 0.445187 -0.006468 -0.495000
v 0.485488 0.096477 -0.495000
v 0.473685 0.143598 -0.495000
v 0.457320 0.189336 -0.495000
v 0.443355 0.043574 0.495000
v 0.494687 -0.500000 -0.495000
v 0.494687 -0.500000 0.495000
v 0.445187 -0.500000 0.495000
v 0.443355 0.043574 -0.495000
v 0.436940 0.086820 -0.495000
v 0.445187 -0.006468 -0.495000
v 0.426317 0.129229 -0.495000
v 0.436550 0.233249 -0.495000
v 0.436550 0.233249 0.495000
v 0.436940 0.086820 0.495000
v 0.445187 -0.500000 -0.495000
v 0.411588 0.170393 -0.495000
v 0.411577 0.274914 -0.495000
v 0.411577 0.274914 0.495000
v 0.411588 0.170393 0.495000
v 0.426317 0.129229 0.495000
v 0.392895 0.209914 -0.495000
v 0.382639 0.313931 -0.495000
v 0.382639 0.313931 0.495000
v 0.392895 0.209914 0.495000
v 0.370419 0.247413 -0.495000
v 0.350017 0.349925 -0.495000
v 0.350017 0.349925 0.495000
v 0.370419 0.247413 0.495000
v 0.344375 0.282529 -0.495000
v 0.315015 0.314923 -0.495000
v 0.314024 0.382547 -0.495000
v 0.314024 0.382547 0.495000
v 0.315015 0.314923 0.495000
v 0.344376 0.282529 0.495000
v 0.275007 0.411484 -0.495000
v 0.275007 0.411484 0.495000
v 0.282622 0.344283 -0.495000
v 0.233341 0.436457 -0.495000
v 0.233341 0.436457 0.495000
v 0.247506 0.370326 0.495000
v 0.282622 0.344283 0.495000
v 0.247506 0.370326 -0.495000
v 0.189428 0.457227 -0.495000
v 0.189428 0.457227 0.495000
v 0.210007 0.392802 -0.495000
v 0.143690 0.473592 -0.495000
v 0.143690 0.473592 0.495000
v 0.210007 0.392802 0.495000
v 0.170485 0.411495 -0.495000
v 0.096569 0.485395 -0.495000
v 0.096569 0.485395 0.495000
v 0.170485 0.411495 0.495000
v 0.129321 0.426223 -0.495000
v 0.048518 0.492522 -0.495000
v 0.048518 0.492522 0.495000
v 0.129321 0.426223 0.495000
v 0.086912 0.436846 -0.495000
v 0.043666 0.443261 -0.495000
v -0.000000 0.494906 -0.495000
v -0.000000 0.494906 0.495000
v 0.043666 0.443261 0.495000
v 0.086912 0.436846 0.495000
v -0.000000 0.445406 -0.495000
v -0.048519 0.492522 -0.495000
v -0.048519 0.492522 0.495000
v -0.000000 0.445406 0.495000
v -0.043667 0.443261 -0.495000
v -0.096570 0.485395 -0.495000
v -0.096570 0.485395 0.495000
v -0.043667 0.443261 0.495000
v -0.143691 0.473591 -0.495000
v -0.143691 0.473591 0.495000
v -0.086913 0.436846 -0.495000
v -0.086913 0.436846 0.495000
v -0.189428 0.457226 -0.495000
v -0.189428 0.457226 0.495000
v -0.129322 0.426223 -0.495000
v -0.129322 0.426223 0.495000
v -0.170485 0.411494 -0.495000
v -0.233341 0.436457 -0.495000
v -0.233341 0.436457 0.495000
v -0.170485 0.411494 0.495000
v -0.275007 0.411484 -0.495000
v -0.275007 0.411484 0.495000
v -0.210007 0.392802 -0.495000
v -0.210007 0.392802 0.495000
v -0.314024 0.382546 -0.495000
v -0.314024 0.382546 0.495000
v -0.247506 0.370326 0.495000
v -0.247506 0.370326 -0.495000
v -0.350018 0.349924 -0.495000
v -0.350017 0.349924 0.495000
v -0.282622 0.344282 -0.495000
v -0.282622 0.344282 0.495000
v -0.315016 0.314922 -0.495000
v -0.382640 0.313931 -0.495000
v -0.382640 0.313931 0.495000
v -0.315016 0.314922 0.495000
v -0.411577 0.274914 -0.495000
v -0.411577 0.274914 0.495000
v -0.344376 0.282528 -0.495000
v -0.344376 0.282528 0.495000
v -0.370420 0.247413 -0.495000
v -0.436551 0.233248 -0.495000
v -0.436551 0.233248 0.495000
v -0.370420 0.247413 0.495000
v -0.392896 0.209914 -0.495000
v -0.457320 0.189335 -0.495000
v -0.457320 0.189335 0.495000
v -0.392896 0.209914 0.495000
v -0.473685 0.143597 -0.495000
v -0.473685 0.143597 0.495000
v -0.411588 0.170392 -0.495000
v -0.411588 0.170392 0.495000
v -0.485489 0.096476 -0.495000
v -0.485489 0.096476 0.495000
v -0.426317 0.129228 -0.495000
v -0.426317 0.129228 0.495000
v -0.436940 0.086819 -0.495000
v -0.492616 0.048425 -0.495000
v -0.492616 0.048425 0.495000
v -0.436940 0.086819 0.495000
v -0.443355 0.043573 -0.495000
v -0.495000 -0.000094 -0.495000
v -0.495000 -0.000094 0.495000
v -0.443355 0.043573 0.495000
v -0.494687 -0.006468 0.495000
v -0.494687 -0.006468 -0.495000
v -0.445500 -0.000094 -0.495000
v -0.445500 -0.000094 0.495000
v -0.494687 -0.006468 -0.495000
v -0.445187 -0.006468 0.495000
v -0.445187 -0.006468 -0.495000
v -0.494687 -0.006468 0.495000
v -0.445187 -0.006468 -0.495000
v -0.445187 -0.006468 0.495000
v -0.494687 -0.500000 0.495000
v -0.494687 -0.500000 -0.495000
v -0.445187 -0.500000 -0.495000
v -0.445187 -0.500000 0.495000
vt 0.0071 0.0003
vt 0.0002 0.3972
vt 0.0002 0.0002
vt 0.0266 0.0003
vt 0.0071 0.3972
vt 0.7914 0.8554
vt 0.7800 0.7974
vt 0.7961 0.8364
vt 0.0002 0.0002
vt 0.0002 0.3972
vt 0.7999 0.7948
vt 0.7799 0.7948
vt 0.7799 0.7948
vt 0.0461 0.3972
vt 0.0461 0.0003
vt 0.0655 0.3972
vt 0.0655 0.0003
vt 0.0850 0.3972
vt 0.0850 0.0003
vt 0.5825 0.9764
vt 0.6001 0.9773
vt 0.5805 0.9963
vt 0.9678 0.7944
vt 0.9747 0.3978
vt 0.9747 0.7945
vt 0.3998 0.6001
vt 0.3798 0.6001
vt 0.3798 0.6001
vt 0.0002 0.3972
vt 0.0002 0.0002
vt 0.7799 0.7948
vt 0.7999 0.7948
vt 0.9747 0.7945
vt 0.9747 0.3978
vt 0.3272 0.4703
vt 0.3414 0.4562
vt 0.3391 0.4834
vt 0.1045 0.3972
vt 0.1045 0.0003
vt 0.9678 0.3977
vt 0.9502 0.7944
vt 0.9502 0.3977
vt 0.3798 0.6001
vt 0.3998 0.6001
vt 0.3998 0.6001
vt 0.9747 0.3978
vt 0.9747 0.7945
vt 0.1240 0.3972
vt 0.1240 0.0003
vt 0.9327 0.7944
vt 0.9327 0.3977
vt 0.9152 0.7944
vt 0.9152 0.3977
vt 0.8977 0.7944
vt 0.8977 0.3977
vt 0.1435 0.3972
vt 0.1435 0.0003
vt 0.8802 0.7944
vt 0.8802 0.3977
vt 0.1629 0.3972
vt 0.1629 0.0003
vt 0.8626 0.7944
vt 0.8626 0.3977
vt 0.1824 0.3972
vt 0.1824 0.0003
vt 0.8451 0.7944
vt 0.8451 0.3977
vt 0.2019 0.3972
vt 0.2019 0.0003
vt 0.8276 0.7944
vt 0.8276 0.3977
vt 0.2214 0.3972
vt 0.2214 0.0003
vt 0.8101 0.7944
vt 0.8101 0.3977
vt 0.2408 0.0003
vt 0.7926 0.7944
vt 0.7926 0.3977
vt 0.2603 0.3972
vt 0.2603 0.0003
vt 0.7751 0.7944
vt 0.7751 0.3977
vt 0.2798 0.3972
vt 0.2798 0.0003
vt 0.7575 0.3977
vt 0.7575 0.7944
vt 0.2993 0.3972
vt 0.2993 0.0003
vt 0.7400 0.7944
vt 0.7400 0.3977
vt 0.3188 0.3972
vt 0.3188 0.0003
vt 0.7225 0.7944
vt 0.7225 0.3977
vt 0.3382 0.3972
vt 0.3382 0.0003
vt 0.7050 0.7944
vt 0.7050 0.3977
vt 0.6875 0.7944
vt 0.6875 0.3977
vt 0.0859 0.4585
vt 0.0728 0.4703
vt 0.0587 0.4562
vt 0.3577 0.3972
vt 0.3577 0.0003
vt 0.6699 0.7944
vt 0.6700 0.3977
vt 0.3772 0.3972
vt 0.3772 0.0003
vt 0.6524 0.7944
vt 0.6524 0.3977
vt 0.3967 0.3972
vt 0.3967 0.0003
vt 0.6349 0.7944
vt 0.6349 0.3977
vt 0.4162 0.0003
vt 0.6174 0.7944
vt 0.6174 0.3977
vt 0.4356 0.3972
vt 0.4356 0.0003
vt 0.5999 0.3977
vt 0.5999 0.7944
vt 0.4551 0.3972
vt 0.4551 0.0003
vt 0.5824 0.7944
vt 0.5824 0.3977
vt 0.4746 0.3972
vt 0.4746 0.0003
vt 0.5648 0.7944
vt 0.5648 0.3977
vt 0.4941 0.3972
vt 0.4941 0.0003
vt 0.5473 0.7944
vt 0.5473 0.3977
vt 0.5136 0.3972
vt 0.5136 0.0003
vt 0.5298 0.7944
vt 0.5298 0.3977
vt 0.5330 0.3972
vt 0.5330 0.0002
vt 0.5123 0.7944
vt 0.5123 0.3977
vt 0.5525 0.3972
vt 0.5525 0.0002
vt 0.4948 0.7944
vt 0.4948 0.3977
vt 0.5720 0.3972
vt 0.5720 0.0002
vt 0.4772 0.7944
vt 0.4773 0.3977
vt 0.5915 0.3972
vt 0.5915 0.0002
vt 0.4597 0.7944
vt 0.4597 0.3977
vt 0.6109 0.3972
vt 0.6109 0.0002
vt 0.4422 0.7944
vt 0.4422 0.3977
vt 0.6304 0.3972
vt 0.6304 0.0002
vt 0.4247 0.7944
vt 0.4247 0.3977
vt 0.6374 0.0003
vt 0.6374 0.3973
vt 0.4072 0.7944
vt 0.4072 0.3977
vt 0.6374 0.3973
vt 0.4202 0.7974
vt 0.4004 0.7948
vt 0.4204 0.7948
vt 0.4003 0.7943
vt 0.4003 0.3977
vt 0.4204 0.7948
vt 0.4003 0.3977
vt 0.6374 0.0003
vt 0.6374 0.3973
vt 0.0203 0.6001
vt 0.0003 0.6001
vt 0.0003 0.6001
vt 0.0003 0.6001
vt 0.0203 0.6001
vt 0.0203 0.6001
vt 0.4004 0.7948
vt 0.4204 0.7948
vt 0.4003 0.7943
vt 0.4003 0.3977
vt 0.0266 0.3972
vt 0.7999 0.7948
vt 0.8000 0.7974
vt 0.7990 0.8170
vt 0.7848 0.8739
vt 0.6197 0.9963
vt 0.6001 0.9973
vt 0.5611 0.9934
vt 0.5421 0.9887
vt 0.5236 0.9821
vt 0.5313 0.9636
vt 0.5059 0.9737
vt 0.4891 0.9636
vt 0.5002 0.9470
vt 0.4733 0.9519
vt 0.4588 0.9387
vt 0.4729 0.9246
vt 0.4456 0.9242
vt 0.4339 0.9085
vt 0.4611 0.9115
vt 0.4239 0.8916
vt 0.4155 0.8739
vt 0.4339 0.8663
vt 0.4089 0.8554
vt 0.4041 0.8364
vt 0.4237 0.8325
vt 0.4012 0.8170
vt 0.4003 0.7974
vt 0.4211 0.8150
vt 0.4280 0.8496
vt 0.5153 0.9561
vt 0.6581 0.9887
vt 0.6391 0.9934
vt 0.6352 0.9738
vt 0.6943 0.9737
vt 0.6766 0.9821
vt 0.6849 0.9561
vt 0.7269 0.9519
vt 0.7112 0.9636
vt 0.7001 0.9470
vt 0.7546 0.9242
vt 0.7414 0.9387
vt 0.7273 0.9246
vt 0.7764 0.8916
vt 0.7663 0.9085
vt 0.7497 0.8974
vt 0.7791 0.8150
vt 0.7765 0.8325
vt 0.7392 0.9115
vt 0.7723 0.8496
vt 0.7663 0.8663
vt 0.7588 0.8822
vt 0.4415 0.8822
vt 0.4506 0.8974
vt 0.7142 0.9365
vt 0.4860 0.9365
vt 0.6690 0.9636
vt 0.5479 0.9696
vt 0.6523 0.9696
vt 0.5650 0.9738
vt 0.6178 0.9764
vt 0.3847 0.5210
vt 0.3913 0.5395
vt 0.3722 0.5453
vt 0.3961 0.5585
vt 0.3989 0.5779
vt 0.3791 0.5799
vt 0.3999 0.5975
vt 0.3799 0.5975
vt 0.3765 0.5624
vt 0.3662 0.4865
vt 0.3763 0.5033
vt 0.3496 0.4976
vt 0.3545 0.4707
vt 0.3111 0.4313
vt 0.3268 0.4430
vt 0.3142 0.4585
vt 0.2765 0.4129
vt 0.2943 0.4213
vt 0.2848 0.4389
vt 0.2390 0.4015
vt 0.2581 0.4063
vt 0.2351 0.4211
vt 0.2000 0.3977
vt 0.2196 0.3986
vt 0.2177 0.4185
vt 0.2000 0.4176
vt 0.3000 0.4480
vt 0.2523 0.4254
vt 0.2689 0.4313
vt 0.3662 0.5287
vt 0.3587 0.5127
vt 0.2409 0.3972
vt 0.0202 0.5975
vt 0.0002 0.5975
vt 0.0011 0.5779
vt 0.0040 0.5585
vt 0.0236 0.5624
vt 0.0088 0.5395
vt 0.0154 0.5210
vt 0.0339 0.5287
vt 0.0238 0.5033
vt 0.0339 0.4865
vt 0.0414 0.5127
vt 0.0455 0.4707
vt 0.0732 0.4430
vt 0.0890 0.4313
vt 0.1001 0.4480
vt 0.1058 0.4213
vt 0.1236 0.4129
vt 0.1312 0.4313
vt 0.1420 0.4063
vt 0.1610 0.4015
vt 0.1478 0.4254
vt 0.1804 0.3986
vt 0.1824 0.4185
vt 0.0210 0.5799
vt 0.1649 0.4211
vt 0.0279 0.5453
vt 0.0505 0.4976
vt 0.1152 0.4389
vt 0.0610 0.4834
vt 0.4162 0.3972
vt 0.6374 0.0003
vt 0.4004 0.7948
vt 0.4003 0.7943
vt 0.0000 0.0000
vt 0.0000 0.0000
vt 0.0000 0.0000
vt 0.0000 0.0000
vt 0.0000 0.0000
vt 0.0000 0.0000
vt 0.0000 0.0000
vt 0.0000 0.0000
vn 0.9988 -0.0491 -0.0000
vn 0.9988 0.0491 -0.0000
vn 0.0000 0.0000 1.0000
vn 0.9892 0.1467 -0.0000
vn 0.9700 0.2430 -0.0000
vn 0.9415 0.3369 -0.0000
vn -0.9988 0.0491 0.0000
vn 1.0000 0.0000 -0.0000
vn 0.0000 0.0000 -1.0000
vn 0.9040 0.4276 -0.0000
vn -0.9988 -0.0491 0.0000
vn -1.0000 -0.0000 0.0000
vn 0.8577 0.5141 -0.0000
vn -0.9892 -0.1467 0.0000
vn -0.9700 -0.2430 0.0000
vn -0.9415 -0.3369 0.0000
vn 0.8032 0.5957 -0.0000
vn -0.9040 -0.4276 0.0000
vn 0.7410 0.6716 -0.0000
vn -0.8577 -0.5141 0.0000
vn 0.6716 0.7410 0.0000
vn -0.8032 -0.5957 0.0000
vn 0.5957 0.8032 0.0000
vn -0.7410 -0.6716 0.0000
vn 0.5141 0.8577 0.0000
vn -0.6716 -0.7410 0.0000
vn 0.4276 0.9040 -0.0000
vn -0.5957 -0.8032 0.0000
vn 0.3369 0.9415 0.0000
vn -0.5141 -0.8577 0.0000
vn 0.2430 0.9700 0.0000
vn -0.4276 -0.9040 0.0000
vn 0.1467 0.9892 0.0000
vn -0.3369 -0.9415 0.0000
vn 0.0491 0.9988 0.0000
vn -0.2430 -0.9700 0.0000
vn -0.0491 0.9988 -0.0000
vn -0.1467 -0.9892 0.0000
vn -0.0491 -0.9988 0.0000
vn -0.1467 0.9892 0.0000
vn 0.0491 -0.9988 0.0000
vn -0.2430 0.9700 0.0000
vn 0.1467 -0.9892 -0.0000
vn -0.3369 0.9415 0.0000
vn 0.2430 -0.9700 -0.0000
vn -0.4276 0.9040 -0.0000
vn 0.3369 -0.9415 -0.0000
vn -0.5141 0.8577 0.0000
vn 0.4276 -0.9040 0.0000
vn -0.5957 0.8032 0.0000
vn 0.5141 -0.8577 -0.0000
vn -0.6716 0.7410 0.0000
vn 0.5957 -0.8032 -0.0000
vn -0.7410 0.6716 0.0000
vn 0.6716 -0.7410 -0.0000
vn -0.8032 0.5957 0.0000
vn 0.7410 -0.6716 -0.0000
vn -0.8577 0.5141 0.0000
vn 0.8032 -0.5957 -0.0000
vn -0.9040 0.4276 0.0000
vn 0.8577 -0.5141 -0.0000
vn -0.9415 0.3369 0.0000
vn 0.9040 -0.4276 -0.0000
vn -0.9700 0.2430 0.0000
vn 0.9415 -0.3369 -0.0000
vn -0.9892 0.1467 0.0000
vn 0.9700 -0.2430 -0.0000
vn 0.9892 -0.1467 -0.0000
vn -0.7409 -0.6716 0.0000
vn 0.0000 -1.0000 0.0000
usemtl None
s off
f 2/1/1 4/2/1 1/3/1
f 7/4/2 3/5/2 2/1/2
f 10/6/3 12/7/3 9/8/3
f 14/9/3 4/2/3 5/10/3
f 5/11/3 13/12/3 15/13/3
f 9/14/4 7/4/4 17/15/4
f 10/16/5 17/15/5 18/17/5
f 11/18/6 18/17/6 19/19/6
f 86/20/3 82/21/3 81/22/3
f 12/23/7 16/24/7 13/25/7
f 1/26/3 26/27/3 16/28/3
f 14/9/8 22/29/8 21/30/8
f 5/11/3 23/31/3 22/32/3
f 15/33/3 16/24/3 26/34/3
f 46/35/9 42/36/9 45/37/9
f 29/38/10 19/19/10 28/39/10
f 6/40/11 20/41/11 24/42/11
f 31/43/9 14/44/9 21/45/9
f 15/33/12 31/46/12 23/47/12
f 34/48/13 28/39/13 33/49/13
f 24/42/14 30/50/14 25/51/14
f 25/51/15 36/52/15 27/53/15
f 27/53/16 35/54/16 32/55/16
f 39/56/17 33/49/17 38/57/17
f 32/55/18 40/58/18 37/59/18
f 43/60/19 38/57/19 42/61/19
f 37/59/20 44/62/20 41/63/20
f 48/64/21 42/61/21 47/65/21
f 41/63/22 50/66/22 45/67/22
f 52/68/23 47/65/23 51/69/23
f 45/67/24 49/70/24 46/71/24
f 55/72/25 51/69/25 54/73/25
f 46/71/26 57/74/26 53/75/26
f 59/76/27 55/72/27 54/73/27
f 53/75/28 56/77/28 58/78/28
f 63/79/29 59/76/29 62/80/29
f 58/78/30 64/81/30 61/82/30
f 67/83/31 62/80/31 66/84/31
f 65/85/32 64/81/32 68/86/32
f 71/87/33 66/84/33 70/88/33
f 65/85/34 72/89/34 69/90/34
f 76/91/35 70/88/35 75/92/35
f 69/90/36 78/93/36 73/94/36
f 81/95/37 75/92/37 80/96/37
f 73/94/38 77/97/38 74/98/38
f 74/98/39 82/99/39 79/100/39
f 109/101/9 111/102/9 107/103/9
f 85/104/40 80/96/40 84/105/40
f 79/100/41 86/106/41 83/107/41
f 88/108/42 84/105/42 87/109/42
f 83/107/43 90/110/43 89/111/43
f 92/112/44 87/109/44 91/113/44
f 89/111/45 94/114/45 93/115/45
f 96/116/46 92/112/46 91/113/46
f 93/115/47 98/117/47 95/118/47
f 100/119/48 96/116/48 99/120/48
f 101/121/49 98/117/49 102/122/49
f 104/123/50 99/120/50 103/124/50
f 101/121/51 105/125/51 106/126/51
f 108/127/52 103/124/52 107/128/52
f 106/126/53 110/129/53 109/130/53
f 113/131/54 107/128/54 112/132/54
f 109/130/55 114/133/55 111/134/55
f 116/135/56 112/132/56 115/136/56
f 111/134/57 118/137/57 117/138/57
f 121/139/58 115/136/58 120/140/58
f 117/138/59 122/141/59 119/142/59
f 125/143/60 120/140/60 124/144/60
f 119/142/61 126/145/61 123/146/61
f 128/147/62 124/144/62 127/148/62
f 123/146/63 130/149/63 129/150/63
f 132/151/64 127/148/64 131/152/64
f 129/150/65 134/153/65 133/154/65
f 137/155/66 131/152/66 136/156/66
f 133/154/67 138/157/67 135/158/67
f 141/159/7 136/156/7 140/160/7
f 135/158/68 142/161/68 139/162/68
f 141/159/11 144/163/11 143/164/11
f 139/162/1 146/165/1 145/166/1
f 144/163/3 150/167/3 143/164/3
f 146/168/3 143/169/3 148/170/3
f 145/166/2 148/171/2 149/172/2
f 143/169/3 152/173/3 148/170/3
f 148/171/3 151/174/3 149/172/3
f 150/167/12 154/175/12 153/176/12
f 149/177/3 147/178/3 144/179/3
f 154/180/9 151/181/9 155/182/9
f 152/173/3 153/183/3 156/184/3
f 151/174/8 156/185/8 155/186/8
f 2/1/1 3/5/1 4/2/1
f 7/4/2 8/187/2 3/5/2
f 13/12/3 4/188/3 12/7/3
f 3/189/3 12/7/3 4/188/3
f 9/8/3 12/7/3 8/190/3
f 11/191/3 12/7/3 10/6/3
f 3/189/3 8/190/3 12/7/3
f 14/9/3 1/3/3 4/2/3
f 5/11/3 4/188/3 13/12/3
f 9/14/4 8/187/4 7/4/4
f 10/16/5 9/14/5 17/15/5
f 11/18/6 10/16/6 18/17/6
f 71/192/3 76/193/3 82/21/3
f 81/22/3 85/194/3 86/20/3
f 88/195/3 92/196/3 98/197/3
f 97/198/3 100/199/3 105/200/3
f 104/201/3 108/202/3 114/203/3
f 113/204/3 116/205/3 118/206/3
f 121/207/3 125/208/3 130/209/3
f 128/210/3 132/211/3 138/212/3
f 137/213/3 141/214/3 146/168/3
f 137/213/3 146/168/3 142/215/3
f 125/208/3 128/210/3 134/216/3
f 108/202/3 113/204/3 114/203/3
f 92/196/3 97/198/3 102/217/3
f 76/193/3 81/22/3 82/21/3
f 63/218/3 67/219/3 78/220/3
f 55/221/3 60/222/3 64/223/3
f 48/224/3 52/225/3 56/226/3
f 39/227/3 43/228/3 49/229/3
f 29/230/3 34/231/3 44/232/3
f 12/7/3 11/191/3 20/233/3
f 20/233/3 11/191/3 30/234/3
f 34/231/3 39/227/3 50/235/3
f 52/225/3 55/221/3 56/226/3
f 67/219/3 71/192/3 78/220/3
f 100/199/3 104/201/3 105/200/3
f 132/211/3 137/213/3 138/212/3
f 137/213/3 142/215/3 138/212/3
f 43/228/3 48/224/3 49/229/3
f 30/234/3 11/191/3 36/236/3
f 36/236/3 11/191/3 35/237/3
f 128/210/3 138/212/3 134/216/3
f 125/208/3 134/216/3 130/209/3
f 35/237/3 11/191/3 29/230/3
f 40/238/3 35/237/3 29/230/3
f 121/207/3 130/209/3 126/239/3
f 121/207/3 126/239/3 122/240/3
f 44/232/3 40/238/3 29/230/3
f 50/235/3 44/232/3 34/231/3
f 121/207/3 122/240/3 116/205/3
f 122/240/3 118/206/3 116/205/3
f 49/229/3 50/235/3 39/227/3
f 57/241/3 49/229/3 48/224/3
f 113/204/3 118/206/3 114/203/3
f 104/201/3 114/203/3 110/242/3
f 57/241/3 48/224/3 56/226/3
f 56/226/3 55/221/3 64/223/3
f 104/201/3 110/242/3 105/200/3
f 97/198/3 105/200/3 102/217/3
f 64/223/3 60/222/3 68/243/3
f 68/243/3 60/222/3 63/218/3
f 92/196/3 102/217/3 98/197/3
f 88/195/3 98/197/3 94/244/3
f 72/245/3 68/243/3 63/218/3
f 78/220/3 72/245/3 63/218/3
f 88/195/3 94/244/3 90/246/3
f 88/195/3 90/246/3 85/194/3
f 78/220/3 71/192/3 77/247/3
f 77/247/3 71/192/3 82/21/3
f 90/246/3 86/20/3 85/194/3
f 12/23/7 6/40/7 16/24/7
f 1/26/3 14/44/3 26/27/3
f 14/9/8 5/10/8 22/29/8
f 5/11/3 15/13/3 23/31/3
f 15/33/3 13/25/3 16/24/3
f 19/248/9 18/249/9 27/250/9
f 17/251/9 7/252/9 24/253/9
f 2/254/9 1/26/9 6/255/9
f 1/26/9 16/28/9 6/255/9
f 18/249/9 17/251/9 25/256/9
f 33/257/9 28/258/9 41/259/9
f 42/36/9 38/260/9 45/37/9
f 51/261/9 47/262/9 53/263/9
f 59/264/9 54/265/9 61/266/9
f 66/267/9 62/268/9 73/269/9
f 75/270/9 70/271/9 74/272/9
f 74/272/9 79/273/9 75/270/9
f 73/269/9 74/272/9 70/271/9
f 70/271/9 66/267/9 73/269/9
f 54/265/9 51/261/9 58/274/9
f 38/260/9 33/257/9 45/37/9
f 7/252/9 2/254/9 24/253/9
f 2/254/9 6/255/9 24/253/9
f 47/262/9 42/36/9 53/263/9
f 73/269/9 62/268/9 69/275/9
f 69/275/9 62/268/9 59/264/9
f 17/251/9 24/253/9 25/256/9
f 18/249/9 25/256/9 27/250/9
f 65/276/9 69/275/9 59/264/9
f 61/266/9 65/276/9 59/264/9
f 19/248/9 27/250/9 32/277/9
f 19/248/9 32/277/9 37/278/9
f 58/274/9 61/266/9 54/265/9
f 53/263/9 58/274/9 51/261/9
f 19/248/9 37/278/9 28/258/9
f 37/278/9 41/259/9 28/258/9
f 53/263/9 42/36/9 46/35/9
f 41/259/9 45/37/9 33/257/9
f 29/38/10 11/18/10 19/19/10
f 6/40/11 12/23/11 20/41/11
f 31/43/9 26/27/9 14/44/9
f 15/33/12 26/34/12 31/46/12
f 34/48/13 29/38/13 28/39/13
f 24/42/14 20/41/14 30/50/14
f 25/51/15 30/50/15 36/52/15
f 27/53/16 36/52/16 35/54/16
f 39/56/17 34/48/17 33/49/17
f 32/55/18 35/54/18 40/58/18
f 43/60/19 39/56/19 38/57/19
f 37/59/20 40/58/20 44/62/20
f 48/64/21 43/60/21 42/61/21
f 41/63/22 44/62/22 50/66/22
f 52/68/23 48/64/23 47/65/23
f 45/67/69 50/66/69 49/70/69
f 55/72/25 52/68/25 51/69/25
f 46/71/26 49/70/26 57/74/26
f 59/76/27 60/279/27 55/72/27
f 53/75/28 57/74/28 56/77/28
f 63/79/29 60/279/29 59/76/29
f 58/78/30 56/77/30 64/81/30
f 67/83/31 63/79/31 62/80/31
f 65/85/32 61/82/32 64/81/32
f 71/87/33 67/83/33 66/84/33
f 65/85/34 68/86/34 72/89/34
f 76/91/35 71/87/35 70/88/35
f 69/90/36 72/89/36 78/93/36
f 81/95/37 76/91/37 75/92/37
f 73/94/38 78/93/38 77/97/38
f 74/98/39 77/97/39 82/99/39
f 145/280/9 149/177/9 144/179/9
f 144/179/9 140/281/9 145/280/9
f 136/282/9 131/283/9 135/284/9
f 127/285/9 124/286/9 129/287/9
f 120/288/9 115/289/9 123/290/9
f 112/291/9 107/103/9 111/102/9
f 103/292/9 99/293/9 106/294/9
f 96/295/9 91/296/9 95/297/9
f 87/298/9 84/299/9 93/300/9
f 80/301/9 75/270/9 83/302/9
f 75/270/9 79/273/9 83/302/9
f 91/296/9 87/298/9 95/297/9
f 107/103/9 103/292/9 109/101/9
f 124/286/9 120/288/9 129/287/9
f 140/281/9 136/282/9 139/303/9
f 139/303/9 145/280/9 140/281/9
f 135/284/9 139/303/9 136/282/9
f 131/283/9 127/285/9 135/284/9
f 99/293/9 96/295/9 106/294/9
f 80/301/9 83/302/9 89/304/9
f 80/301/9 89/304/9 84/299/9
f 135/284/9 127/285/9 133/305/9
f 133/305/9 127/285/9 129/287/9
f 89/304/9 93/300/9 84/299/9
f 93/300/9 95/297/9 87/298/9
f 129/287/9 120/288/9 123/290/9
f 123/290/9 115/289/9 119/306/9
f 96/295/9 95/297/9 101/307/9
f 96/295/9 101/307/9 106/294/9
f 119/306/9 115/289/9 112/291/9
f 117/308/9 119/306/9 112/291/9
f 103/292/9 106/294/9 109/101/9
f 111/102/9 117/308/9 112/291/9
f 85/104/40 81/95/40 80/96/40
f 79/100/41 82/99/41 86/106/41
f 88/108/42 85/104/42 84/105/42
f 83/107/43 86/106/43 90/110/43
f 92/112/44 88/108/44 87/109/44
f 89/111/45 90/110/45 94/114/45
f 96/116/46 97/309/46 92/112/46
f 93/115/47 94/114/47 98/117/47
f 100/119/48 97/309/48 96/116/48
f 101/121/49 95/118/49 98/117/49
f 104/123/50 100/119/50 99/120/50
f 101/121/51 102/122/51 105/125/51
f 108/127/52 104/123/52 103/124/52
f 106/126/53 105/125/53 110/129/53
f 113/131/54 108/127/54 107/128/54
f 109/130/55 110/129/55 114/133/55
f 116/135/56 113/131/56 112/132/56
f 111/134/57 114/133/57 118/137/57
f 121/139/58 116/135/58 115/136/58
f 117/138/59 118/137/59 122/141/59
f 125/143/60 121/139/60 120/140/60
f 119/142/61 122/141/61 126/145/61
f 128/147/62 125/143/62 124/144/62
f 123/146/63 126/145/63 130/149/63
f 132/151/64 128/147/64 127/148/64
f 129/150/65 130/149/65 134/153/65
f 137/155/66 132/151/66 131/152/66
f 133/154/67 134/153/67 138/157/67
f 141/159/7 137/155/7 136/156/7
f 135/158/68 138/157/68 142/161/68
f 141/159/11 140/160/11 144/163/11
f 139/162/1 142/161/1 146/165/1
f 144/163/3 147/310/3 150/167/3
f 146/168/3 141/214/3 143/169/3
f 145/166/2 146/165/2 148/171/2
f 143/169/3 150/311/3 152/173/3
f 148/171/3 152/312/3 151/174/3
f 150/167/12 147/310/12 154/175/12
f 149/177/3 151/181/3 147/178/3
f 154/180/9 147/178/9 151/181/9
f 152/173/3 150/311/3 153/183/3
f 151/174/8 152/312/8 156/185/8
usemtl None_NONE
f 155/313/70 153/314/70 154/315/70
f 22/316/70 31/317/70 21/318/70
f 155/313/70 156/319/70 153/314/70
f 22/316/70 23/320/70 31/317/70
