# Blender v2.76 (sub 0) OBJ File: ''
# www.blender.org
mtllib box.mtl
o Cube_Cube.001
v -10.336656 -0.816958 6.755649
v -10.336656 1.183042 6.755649
v -10.336656 -0.816958 -6.755649
v -10.336656 1.183042 -6.755649
v 10.336656 -0.816958 6.755649
v 10.336656 1.183042 6.755649
v 10.336656 -0.816958 -6.755649
v 10.336656 1.183042 -6.755649
v -10.217299 -0.805411 6.677642
v -10.190478 1.183042 6.660113
v -10.217299 -0.805411 -6.677642
v -10.190478 1.183042 -6.660113
v 10.217299 -0.805411 6.677642
v 10.190478 1.183042 6.660113
v 10.217299 -0.805411 -6.677642
v 10.190478 1.183042 -6.660113
vn -1.000000 0.000000 0.000000
vn 0.000000 0.000000 -1.000000
vn 1.000000 0.000000 0.000000
vn 0.000000 0.000000 1.000000
vn 0.000000 -1.000000 0.000000
vn 0.999900 -0.013500 0.000000
vn 0.000000 -0.008800 1.000000
vn -0.999900 -0.013500 0.000000
vn 0.000000 -0.008800 -1.000000
vn 0.000000 1.000000 0.000000
usemtl None
s off
f 4//1 3//1 1//1
f 8//2 7//2 3//2
f 6//3 5//3 7//3
f 2//4 1//4 5//4
f 3//5 7//5 5//5
f 11//6 12//6 10//6
f 15//7 16//7 12//7
f 13//8 14//8 16//8
f 9//9 10//9 14//9
f 15//10 11//10 9//10
f 2//10 10//10 12//10
f 4//10 12//10 16//10
f 8//10 16//10 14//10
f 6//10 14//10 10//10
f 2//1 4//1 1//1
f 4//2 8//2 3//2
f 8//3 6//3 7//3
f 6//4 2//4 5//4
f 1//5 3//5 5//5
f 9//6 11//6 10//6
f 11//7 15//7 12//7
f 15//8 13//8 16//8
f 13//9 9//9 14//9
f 13//10 15//10 9//10
f 4//10 2//10 12//10
f 8//10 4//10 16//10
f 6//10 8//10 14//10
f 2//10 6//10 10//10
