# Blender v2.77 (sub 0) OBJ File: ''
# www.blender.org
mtllib box.mtl
o Cube
v 1.819564 -0.258945 -1.000000
v 1.819564 -0.258945 1.000000
v -1.819564 -0.258945 1.000000
v -1.819563 -0.258945 -1.000000
v 1.819564 0.258945 -1.000000
v 1.819562 0.258945 1.000001
v -1.819564 0.258945 1.000000
v -1.819563 0.258945 -1.000000
v 1.901564 -0.340945 -1.082000
v -1.901563 -0.340945 -1.082000
v -1.901564 -0.340945 1.082000
v 1.901564 -0.340945 1.082000
v 1.901562 0.258945 1.082001
v 1.901564 0.258945 -1.082000
v -1.901564 0.258945 1.082000
v -1.901563 0.258945 -1.082000
vt 0.7489 0.0023
vt 0.5564 0.4913
vt 0.5564 0.0023
vt 0.2554 0.7821
vt 0.3052 0.5133
vt 0.3052 0.7821
vt 0.6141 0.9803
vt 0.6640 0.4913
vt 0.6640 0.9803
vt 0.5564 0.7821
vt 0.5066 0.5133
vt 0.5564 0.5133
vt 0.7138 0.4913
vt 0.6640 0.9803
vt 0.6640 0.4913
vt 0.3482 0.5133
vt 0.1399 0.0023
vt 0.3482 0.0023
vt 0.1976 0.5133
vt 0.2554 0.8041
vt 0.1976 0.8041
vt 0.5564 0.4913
vt 0.6141 1.0023
vt 0.5564 1.0023
vt 0.1976 0.8041
vt 0.1399 0.5133
vt 0.1976 0.5133
vt 0.7489 0.0023
vt 0.8066 0.5133
vt 0.7489 0.5133
vt 0.5485 0.5023
vt 0.3482 0.5133
vt 0.3560 0.5023
vt 0.3482 0.0023
vt 0.3560 0.0133
vt 0.5485 0.0133
vt 0.5564 0.5133
vt 0.5564 0.0023
vt 0.7489 0.4913
vt 0.2554 0.5133
vt 0.6141 0.4913
vt 0.5066 0.7821
vt 0.7138 0.9803
vt 0.1399 0.5133
vt 0.2554 0.5133
vt 0.6141 0.4913
vt 0.1399 0.8041
vt 0.8066 0.0023
vn 0.0000 -1.0000 0.0000
vn 1.0000 -0.0000 0.0000
vn 0.0000 -0.0000 1.0000
vn -1.0000 -0.0000 -0.0000
vn 0.0000 0.0000 -1.0000
vn 0.0000 1.0000 -0.0000
usemtl Material
s off
f 2/1/1 4/2/1 1/3/1
f 5/4/2 2/5/2 1/6/2
f 6/7/3 3/8/3 2/9/3
f 3/10/4 8/11/4 4/12/4
f 1/13/5 8/14/5 5/15/5
f 10/16/6 12/17/6 9/18/6
f 12/19/4 14/20/4 9/21/4
f 11/22/5 13/23/5 12/24/5
f 10/25/2 15/26/2 11/27/2
f 16/28/3 9/29/3 14/30/3
f 7/31/1 16/32/1 8/33/1
f 8/33/1 14/34/1 5/35/1
f 6/36/1 15/37/1 7/31/1
f 5/35/1 13/38/1 6/36/1
f 2/1/1 3/39/1 4/2/1
f 5/4/2 6/40/2 2/5/2
f 6/7/3 7/41/3 3/8/3
f 3/10/4 7/42/4 8/11/4
f 1/13/5 4/43/5 8/14/5
f 10/16/6 11/44/6 12/17/6
f 12/19/4 13/45/4 14/20/4
f 11/22/5 15/46/5 13/23/5
f 10/25/2 16/47/2 15/26/2
f 16/28/3 10/48/3 9/29/3
f 7/31/1 15/37/1 16/32/1
f 8/33/1 16/32/1 14/34/1
f 6/36/1 13/38/1 15/37/1
f 5/35/1 14/34/1 13/38/1
